<svg width="157" height="50" viewBox="0 0 157 50" fill="none" xmlns="http://www.w3.org/2000/svg">
<path d="M155.959 44.0976C155.959 44.7269 155.844 45.35 155.62 45.9314C155.395 46.5127 155.067 47.0408 154.652 47.4856C154.238 47.9303 153.746 48.283 153.205 48.5233C152.664 48.7637 152.084 48.8871 151.498 48.8864H5.50222C4.31892 48.8877 3.18357 48.384 2.34587 47.486C1.50816 46.5879 1.0367 45.3691 1.03516 44.0976V5.90835C1.0367 4.63626 1.50798 3.41682 2.34551 2.51779C3.18305 1.61875 4.31838 1.11361 5.50222 1.11328H151.497C152.083 1.11328 152.663 1.23732 153.204 1.47831C153.746 1.7193 154.238 2.07252 154.652 2.5178C155.066 2.96308 155.395 3.49169 155.619 4.07345C155.843 4.65521 155.958 5.27871 155.958 5.90835L155.959 44.0976Z" fill="white"/>
<path d="M151.498 50H5.50267C4.04497 49.9997 2.64694 49.378 1.61532 48.2713C0.583704 47.1647 0.00277359 45.6635 0 44.0971L0 5.90913C0.00215645 4.34199 0.582704 2.83976 1.61429 1.73198C2.64587 0.624195 4.04425 0.00132272 5.50267 0L151.497 0C152.956 0.00198273 154.354 0.625067 155.385 1.73271C156.416 2.84034 156.997 4.34219 157 5.90913V44.0971C157.002 47.353 154.53 50 151.498 50Z" fill="#A6A6A6"/>
<path d="M155.959 44.0976C155.959 44.7269 155.844 45.35 155.62 45.9314C155.395 46.5127 155.067 47.0408 154.652 47.4856C154.238 47.9303 153.746 48.283 153.205 48.5233C152.664 48.7637 152.084 48.8871 151.498 48.8864H5.50222C4.31892 48.8877 3.18357 48.384 2.34587 47.486C1.50816 46.5879 1.0367 45.3691 1.03516 44.0976V5.90835C1.0367 4.63626 1.50798 3.41682 2.34551 2.51779C3.18305 1.61875 4.31838 1.11361 5.50222 1.11328H151.497C152.083 1.11328 152.663 1.23732 153.204 1.47831C153.746 1.7193 154.238 2.07252 154.652 2.5178C155.066 2.96308 155.395 3.49169 155.619 4.07345C155.843 4.65521 155.958 5.27871 155.958 5.90835L155.959 44.0976Z" fill="black"/>
<path d="M35.0571 24.7369C35.0233 20.707 38.1278 18.7465 38.2698 18.6552C36.5116 15.9007 33.7864 15.5243 32.8288 15.4943C30.54 15.2355 28.3198 16.966 27.1539 16.966C25.9647 16.966 24.1692 15.5193 22.2342 15.5618C19.7441 15.6031 17.4145 17.1523 16.1369 19.5579C13.5002 24.463 15.4667 31.6713 17.9929 35.6361C19.2565 37.5791 20.7331 39.746 22.6659 39.6697C24.5567 39.5872 25.263 38.3756 27.5449 38.3756C29.8057 38.3756 30.469 39.6697 32.4401 39.6209C34.4694 39.5872 35.7471 37.6704 36.9665 35.7111C38.4268 33.4868 39.0133 31.2937 39.0366 31.1811C38.99 31.1636 35.0966 29.5657 35.0571 24.7369ZM31.3335 12.8861C32.3505 11.5195 33.0464 9.66021 32.8532 7.77344C31.3812 7.84346 29.5404 8.86749 28.4804 10.2041C27.5425 11.3819 26.7047 13.3125 26.9212 15.128C28.5746 15.2605 30.2723 14.2315 31.3335 12.8861Z" fill="white"/>
<path d="M151.497 0H73.2969L103.926 50H151.497C152.955 49.9987 154.353 49.3762 155.384 48.2689C156.416 47.1617 156.997 45.6601 156.999 44.0934V5.90913C156.997 4.34209 156.416 2.84005 155.385 1.73234C154.353 0.624631 152.955 0.00165285 151.497 0V0Z" fill="url(#paint0_linear_3003_12601)"/>
<path d="M62.4461 39.3898H59.8036L58.356 34.5022H53.3246L51.9458 39.3898H49.373L54.3591 22.7502H57.438L62.4461 39.3898ZM57.9197 32.4516L56.6106 28.1067C56.4722 27.6628 56.2115 26.6175 55.8299 24.9721H55.7833C55.6297 25.6798 55.3842 26.7251 55.0479 28.1067L53.761 32.4516H57.9197ZM75.2434 33.2431C75.2434 35.2837 74.7279 36.8966 73.6958 38.0807C72.7719 39.1347 71.6234 39.6611 70.2539 39.6611C68.7749 39.6611 67.7114 39.0947 67.0656 37.9594V44.2549H64.5848V31.3351C64.5848 30.0535 64.5534 28.7394 64.4929 27.3915H66.6746L66.8131 29.2933H66.8596C67.687 27.8604 68.9425 27.1439 70.6274 27.1439C71.9446 27.1439 73.0442 27.7028 73.9239 28.8219C74.8024 29.9435 75.2434 31.4164 75.2434 33.2431ZM72.716 33.3406C72.716 32.1728 72.4717 31.21 71.9806 30.4511C71.4442 29.6621 70.724 29.267 69.821 29.267C69.2089 29.267 68.6527 29.4871 68.1559 29.9209C67.6579 30.3586 67.3321 30.93 67.1796 31.6377C67.1116 31.9023 67.0729 32.1747 67.0644 32.4491V34.4509C67.0644 35.3224 67.3134 36.0589 67.8115 36.6615C68.3095 37.2617 68.9564 37.563 69.7524 37.563C70.6867 37.563 71.414 37.1742 71.9341 36.4027C72.4554 35.6288 72.716 34.6085 72.716 33.3406ZM88.086 33.2431C88.086 35.2837 87.5706 36.8966 86.5385 38.0807C85.6134 39.1347 84.4661 39.6611 83.0954 39.6611C81.6164 39.6611 80.5529 39.0947 79.9071 37.9594V44.2549H77.4263V31.3351C77.4263 30.0535 77.3949 28.7394 77.3344 27.3915H79.5161L79.6546 29.2933H79.7011C80.5273 27.8604 81.7828 27.1439 83.4689 27.1439C84.7849 27.1439 85.8845 27.7028 86.7665 28.8219C87.6439 29.9435 88.086 31.4164 88.086 33.2431ZM85.5575 33.3406C85.5575 32.1728 85.312 31.21 84.821 30.4511C84.2846 29.6621 83.5666 29.267 82.6637 29.267C82.0516 29.267 81.4954 29.4871 80.9962 29.9209C80.4982 30.3586 80.1736 30.93 80.0211 31.6377C79.9455 31.9678 79.9048 32.2366 79.9048 32.4491V34.4509C79.9048 35.3224 80.1549 36.0589 80.6506 36.6615C81.1487 37.2605 81.7956 37.563 82.5939 37.563C83.5294 37.563 84.2566 37.1742 84.7756 36.4027C85.2969 35.6288 85.5575 34.6085 85.5575 33.3406ZM102.445 34.7223C102.445 36.1389 101.984 37.2905 101.068 38.1795C100.061 39.1497 98.6539 39.6361 96.8503 39.6361C95.184 39.6361 93.8482 39.291 92.8405 38.5996L93.4142 36.3777C94.5021 37.0704 95.6972 37.4155 96.9981 37.4155C97.9336 37.4155 98.6609 37.1879 99.1798 36.7366C99.6999 36.2839 99.9629 35.6788 99.9629 34.9236C99.9629 34.2471 99.7453 33.6807 99.3183 33.2194C98.8889 32.7592 98.1791 32.3304 97.1819 31.9365C94.4707 30.8499 93.114 29.2608 93.114 27.1702C93.114 25.8048 93.5934 24.687 94.5498 23.813C95.5063 22.9403 96.7747 22.5039 98.3525 22.5039C99.7616 22.5039 100.936 22.7677 101.868 23.2941L101.245 25.4672C100.368 24.9571 99.3776 24.702 98.2699 24.702C97.3949 24.702 96.7083 24.9333 96.2173 25.3934C95.8042 25.8048 95.5948 26.3062 95.5948 26.9014C95.5948 27.5578 95.8333 28.1029 96.308 28.5306C96.72 28.9244 97.4716 29.3533 98.5584 29.8134C99.8919 30.3911 100.872 31.0638 101.499 31.8365C102.131 32.6092 102.445 33.5732 102.445 34.7223ZM110.668 29.392H107.934V35.2174C107.934 36.6991 108.415 37.438 109.381 37.438C109.824 37.438 110.192 37.398 110.483 37.3142L110.552 39.3385C110.063 39.5348 109.42 39.6336 108.622 39.6336C107.643 39.6336 106.877 39.3123 106.324 38.6696C105.774 38.0269 105.497 36.9504 105.497 35.435V29.387H103.868V27.3865H105.497V25.1896L107.934 24.3994V27.3865H110.668V29.392ZM122.981 33.2919C122.981 35.1361 122.49 36.6503 121.51 37.8344C120.485 39.0535 119.122 39.6611 117.422 39.6611C115.781 39.6611 114.477 39.0772 113.504 37.9106C112.531 36.7416 112.045 35.2687 112.045 33.4919C112.045 31.6327 112.547 30.1097 113.549 28.9257C114.553 27.7403 115.905 27.1477 117.605 27.1477C119.244 27.1477 120.56 27.7328 121.556 28.9007C122.508 30.0335 122.981 31.4964 122.981 33.2919ZM120.41 33.3531C120.41 32.2541 120.189 31.3113 119.745 30.5224C119.225 29.5696 118.48 29.0932 117.516 29.0932C116.522 29.0932 115.76 29.5696 115.241 30.5224C114.797 31.3113 114.575 32.2703 114.575 33.4032C114.575 34.5035 114.797 35.4487 115.241 36.2352C115.777 37.1879 116.526 37.6643 117.495 37.6643C118.443 37.6643 119.187 37.1779 119.724 36.2114C120.18 35.4037 120.41 34.4547 120.41 33.3531ZM131.049 29.7359C130.79 29.6858 130.529 29.6611 130.267 29.6621C129.394 29.6621 128.719 30.0147 128.244 30.7249C127.832 31.3501 127.625 32.1403 127.625 33.0943V39.3898H125.144V31.17C125.147 29.9105 125.123 28.6511 125.072 27.3928H127.233L127.324 29.6884H127.392C127.655 28.8994 128.067 28.263 128.633 27.7866C129.151 27.3703 129.779 27.1449 130.426 27.1439C130.655 27.1439 130.862 27.1614 131.046 27.1927L131.049 29.7359ZM142.143 32.823C142.15 33.2282 142.119 33.6332 142.053 34.0321H134.61C134.638 35.2174 134.999 36.1252 135.69 36.7503C136.317 37.308 137.128 37.5881 138.124 37.5881C139.226 37.5881 140.232 37.4005 141.136 37.0216L141.524 38.8709C140.468 39.366 139.22 39.6124 137.781 39.6124C136.05 39.6124 134.691 39.0647 133.702 37.9719C132.715 36.8779 132.22 35.4075 132.22 33.5657C132.22 31.7577 132.68 30.251 133.6 29.0495C134.564 27.7666 135.866 27.1252 137.504 27.1252C139.113 27.1252 140.332 27.7666 141.159 29.0495C141.814 30.066 142.143 31.3263 142.143 32.823ZM139.778 32.1316C139.795 31.3401 139.632 30.6586 139.296 30.0822C138.867 29.3395 138.206 28.9694 137.32 28.9694C136.509 28.9694 135.848 29.3308 135.346 30.056C134.933 30.6324 134.687 31.3251 134.611 32.1291L139.778 32.1316Z" fill="white"/>
<path d="M52.61 16.8682C51.92 16.8682 51.323 16.832 50.8262 16.7707V8.72601C51.5211 8.61066 52.2233 8.5538 52.9265 8.55596C55.7715 8.55596 57.0817 10.0601 57.0817 12.512C57.0817 15.3403 55.5341 16.8682 52.61 16.8682ZM53.0265 9.58749C52.6426 9.58749 52.3156 9.6125 52.0445 9.67252V15.7879C52.1911 15.813 52.4727 15.8242 52.8683 15.8242C54.7324 15.8242 55.7936 14.6839 55.7936 12.5483C55.7936 10.644 54.8336 9.58749 53.0265 9.58749ZM61.1648 16.9295C59.5613 16.9295 58.5222 15.6429 58.5222 13.8962C58.5222 12.0757 59.5834 10.7778 61.2555 10.7778C62.8357 10.7778 63.8981 12.0032 63.8981 13.7999C63.8981 15.6429 62.8031 16.9295 61.1648 16.9295ZM61.2113 11.7356C60.3305 11.7356 59.7661 12.6208 59.7661 13.8587C59.7661 15.0728 60.3421 15.958 61.1997 15.958C62.0572 15.958 62.6332 15.0115 62.6332 13.8337C62.6332 12.6333 62.0689 11.7356 61.2113 11.7356ZM73.0416 10.8991L71.3253 16.7957H70.2071L69.4961 14.235C69.3194 13.6087 69.1722 12.9731 69.0551 12.3307H69.0319C68.9423 12.9734 68.7724 13.6174 68.592 14.235L67.8357 16.7957H66.7058L65.0908 10.8991H66.3439L66.9653 13.7024C67.1119 14.3701 67.2353 15.0002 67.3377 15.5954H67.3609C67.4505 15.099 67.5971 14.4788 67.8124 13.7149L68.592 10.9004H69.5857L70.3316 13.6549C70.512 14.3225 70.6586 14.9777 70.7726 15.5966H70.8052C70.8843 14.9902 71.0088 14.3463 71.1775 13.6549L71.8443 10.9004L73.0416 10.8991ZM79.36 16.7957H78.1405V13.4098C78.1405 12.367 77.7682 11.8444 77.0339 11.8444C76.3113 11.8444 75.8145 12.512 75.8145 13.2885V16.7957H74.595V12.5846C74.595 12.0632 74.5834 11.5043 74.5497 10.8979H75.6225L75.6795 11.8081H75.7133C76.0414 11.1779 76.707 10.7778 77.4528 10.7778C78.6048 10.7778 79.3611 11.7243 79.3611 13.2648L79.36 16.7957ZM82.7228 16.7957H81.5022V8.19336H82.7228V16.7957ZM87.1689 16.9295C85.5666 16.9295 84.5264 15.6429 84.5264 13.8962C84.5264 12.0757 85.5876 10.7778 87.2585 10.7778C88.8398 10.7778 89.901 12.0032 89.901 13.7999C89.9022 15.6429 88.8061 16.9295 87.1689 16.9295ZM87.2143 11.7356C86.3334 11.7356 85.7691 12.6208 85.7691 13.8587C85.7691 15.0728 86.3462 15.958 87.2015 15.958C88.0602 15.958 88.635 15.0115 88.635 13.8337C88.6362 12.6333 88.073 11.7356 87.2143 11.7356ZM94.709 16.7957L94.6206 16.1168H94.588C94.2157 16.6632 93.6723 16.9295 92.9834 16.9295C92.0002 16.9295 91.302 16.1893 91.302 15.194C91.302 13.7386 92.4761 12.9859 94.5089 12.9859V12.8771C94.5089 12.1007 94.1261 11.7118 93.3697 11.7118C92.8287 11.7118 92.3539 11.8581 91.9362 12.1494L91.6883 11.288C92.1957 10.9479 92.8287 10.7778 93.5722 10.7778C95.0058 10.7778 95.7295 11.5905 95.7295 13.2172V15.3891C95.7295 15.9843 95.754 16.4456 95.8086 16.797L94.709 16.7957ZM94.5415 13.8587C93.1871 13.8587 92.5075 14.2113 92.5075 15.0477C92.5075 15.6667 92.8578 15.9692 93.3441 15.9692C93.9643 15.9692 94.5415 15.4604 94.5415 14.7689V13.8587ZM101.651 16.7957L101.594 15.8492H101.56C101.21 16.5644 100.621 16.9295 99.7986 16.9295C98.4756 16.9295 97.4959 15.6792 97.4959 13.9199C97.4959 12.0757 98.5117 10.7766 99.8987 10.7766C100.633 10.7766 101.153 11.0429 101.446 11.578H101.471V8.19336H102.691V15.2065C102.691 15.7767 102.704 16.3106 102.737 16.7957H101.651ZM101.471 13.326C101.471 12.5008 100.962 11.7969 100.186 11.7969C99.282 11.7969 98.7293 12.6583 98.7293 13.8712C98.7293 15.0602 99.3029 15.8742 100.162 15.8742C100.928 15.8742 101.471 15.1578 101.471 14.3088V13.326ZM110.43 16.9295C108.828 16.9295 107.789 15.6429 107.789 13.8962C107.789 12.0757 108.85 10.7778 110.521 10.7778C112.103 10.7778 113.164 12.0032 113.164 13.7999C113.165 15.6429 112.07 16.9295 110.43 16.9295ZM110.476 11.7356C109.596 11.7356 109.032 12.6208 109.032 13.8587C109.032 15.0728 109.608 15.958 110.464 15.958C111.323 15.958 111.898 15.0115 111.898 13.8337C111.9 12.6333 111.336 11.7356 110.476 11.7356ZM119.722 16.7957H118.501V13.4098C118.501 12.367 118.129 11.8444 117.395 11.8444C116.672 11.8444 116.176 12.512 116.176 13.2885V16.7957H114.956V12.5846C114.956 12.0632 114.944 11.5043 114.91 10.8979H115.983L116.04 11.8081H116.074C116.401 11.1779 117.068 10.7766 117.812 10.7766C118.964 10.7766 119.722 11.7231 119.722 13.2635V16.7957ZM127.926 11.8819H126.585V14.7452C126.585 15.4741 126.82 15.838 127.295 15.838C127.51 15.838 127.69 15.813 127.836 15.7767L127.869 16.772C127.633 16.8695 127.317 16.9183 126.923 16.9183C125.962 16.9183 125.387 16.3481 125.387 14.8552V11.8819H124.587V10.8991H125.387V9.81881L126.585 9.42995V10.8979H127.926V11.8819ZM134.382 16.7957H133.164V13.4348C133.164 12.3795 132.793 11.8456 132.057 11.8456C131.425 11.8456 130.837 12.307 130.837 13.241V16.7957H129.618V8.19336H130.837V11.7356H130.861C131.245 11.0929 131.801 10.7766 132.511 10.7766C133.672 10.7766 134.382 11.7468 134.382 13.2885V16.7957ZM140.996 14.1625H137.336C137.36 15.2791 138.047 15.9092 139.066 15.9092C139.607 15.9092 140.105 15.8117 140.544 15.6304L140.734 16.5407C140.215 16.7832 139.604 16.9045 138.893 16.9045C137.177 16.9045 136.161 15.7392 136.161 13.9324C136.161 12.1244 137.201 10.7653 138.756 10.7653C140.158 10.7653 141.038 11.8819 141.038 13.5686C141.046 13.7676 141.032 13.967 140.996 14.1625ZM139.878 13.2285C139.878 12.3182 139.451 11.6756 138.671 11.6756C137.971 11.6756 137.417 12.3307 137.338 13.2285H139.878Z" fill="white"/>
<defs>
<linearGradient id="paint0_linear_3003_12601" x1="115.147" y1="50.1328" x2="115.147" y2="-130.191" gradientUnits="userSpaceOnUse">
<stop stop-color="#1A1A1A" stop-opacity="0.1"/>
<stop offset="0.123" stop-color="#212121" stop-opacity="0.151"/>
<stop offset="0.308" stop-color="#353535" stop-opacity="0.227"/>
<stop offset="0.532" stop-color="#575757" stop-opacity="0.318"/>
<stop offset="0.783" stop-color="#858585" stop-opacity="0.421"/>
<stop offset="1" stop-color="#B3B3B3" stop-opacity="0.51"/>
</linearGradient>
</defs>
</svg>
