<svg width="157" height="50" viewBox="0 0 157 50" fill="none" xmlns="http://www.w3.org/2000/svg">
<path d="M151.185 50H5.81481C2.55852 50 0 47.25 0 43.75V6.25C0 2.75 2.55852 0 5.81481 0H151.185C154.441 0 157 2.75 157 6.25V43.75C157 47.25 154.441 50 151.185 50Z" fill="black"/>
<path d="M151.185 1C153.86 1 156.07 3.375 156.07 6.25V43.75C156.07 46.625 153.86 49 151.185 49H5.81481C3.14 49 0.93037 46.625 0.93037 43.75V6.25C0.93037 3.375 3.14 1 5.81481 1H151.185ZM151.185 0H5.81481C2.55852 0 0 2.875 0 6.25V43.75C0 47.25 2.55852 50 5.81481 50H151.185C154.441 50 157 47.25 157 43.75V6.25C157 2.875 154.441 0 151.185 0Z" fill="#A6A6A6"/>
<path d="M55.1223 12.75C55.1223 13.75 54.8897 14.625 54.3082 15.25C53.6105 16 52.7964 16.375 51.7497 16.375C50.703 16.375 49.889 16 49.1912 15.25C48.4934 14.5 48.1445 13.625 48.1445 12.5C48.1445 11.375 48.4934 10.5 49.1912 9.75C49.889 9 50.703 8.625 51.7497 8.625C52.2149 8.625 52.6801 8.75 53.1453 9C53.6105 9.25 53.9593 9.5 54.1919 9.875L53.6105 10.5C53.1453 9.875 52.5638 9.625 51.7497 9.625C51.0519 9.625 50.3542 9.875 49.889 10.5C49.3075 11 49.0749 11.75 49.0749 12.625C49.0749 13.5 49.3075 14.25 49.889 14.75C50.4705 15.25 51.0519 15.625 51.7497 15.625C52.5638 15.625 53.1453 15.375 53.7268 14.75C54.0756 14.375 54.3082 13.875 54.3082 13.25H51.7497V12.25H55.1223V12.75ZM60.4719 9.625H57.3319V12H60.2393V12.875H57.3319V15.25H60.4719V16.25H56.4016V8.75H60.4719V9.625ZM64.3097 16.25H63.3793V9.625H61.4023V8.75H66.2868V9.625H64.3097V16.25ZM69.6593 16.25V8.75H70.5897V16.25H69.6593ZM74.5438 16.25H73.6134V9.625H71.6364V8.75H76.4045V9.625H74.4275V16.25H74.5438ZM85.5919 15.25C84.8942 16 84.0801 16.375 83.0334 16.375C81.9868 16.375 81.1727 16 80.4749 15.25C79.7771 14.5 79.4282 13.625 79.4282 12.5C79.4282 11.375 79.7771 10.5 80.4749 9.75C81.1727 9 81.9868 8.625 83.0334 8.625C84.0801 8.625 84.8942 9 85.5919 9.75C86.2897 10.5 86.6386 11.375 86.6386 12.5C86.6386 13.625 86.2897 14.5 85.5919 15.25ZM81.1727 14.625C81.6379 15.125 82.3356 15.5 83.0334 15.5C83.7312 15.5 84.429 15.25 84.8942 14.625C85.3593 14.125 85.7082 13.375 85.7082 12.5C85.7082 11.625 85.4756 10.875 84.8942 10.375C84.429 9.875 83.7312 9.5 83.0334 9.5C82.3356 9.5 81.6379 9.75 81.1727 10.375C80.7075 10.875 80.3586 11.625 80.3586 12.5C80.3586 13.375 80.5912 14.125 81.1727 14.625ZM87.9179 16.25V8.75H88.9645L92.3371 14.625V8.75H93.2675V16.25H92.3371L88.7319 10.125V16.25H87.9179Z" fill="white"/>
<path d="M79.1969 27.25C76.4058 27.25 74.1961 29.5 74.1961 32.625C74.1961 35.625 76.4058 38 79.1969 38C81.988 38 84.1976 35.75 84.1976 32.625C84.1976 29.375 81.988 27.25 79.1969 27.25ZM79.1969 35.75C77.685 35.75 76.4058 34.375 76.4058 32.5C76.4058 30.625 77.685 29.25 79.1969 29.25C80.7087 29.25 81.988 30.5 81.988 32.5C81.988 34.375 80.7087 35.75 79.1969 35.75ZM68.3813 27.25C65.5902 27.25 63.3806 29.5 63.3806 32.625C63.3806 35.625 65.5902 38 68.3813 38C71.1724 38 73.3821 35.75 73.3821 32.625C73.3821 29.375 71.1724 27.25 68.3813 27.25ZM68.3813 35.75C66.8695 35.75 65.5902 34.375 65.5902 32.5C65.5902 30.625 66.8695 29.25 68.3813 29.25C69.8932 29.25 71.1724 30.5 71.1724 32.5C71.1724 34.375 69.8932 35.75 68.3813 35.75ZM55.4724 28.875V31.125H60.4732C60.3569 32.375 59.8917 33.375 59.3102 34C58.6124 34.75 57.4495 35.625 55.4724 35.625C52.3324 35.625 50.0065 33 50.0065 29.625C50.0065 26.25 52.4487 23.625 55.4724 23.625C57.1006 23.625 58.3798 24.375 59.3102 25.25L60.8221 23.625C59.5428 22.375 57.9147 21.375 55.5887 21.375C51.4021 21.375 47.7969 25.125 47.7969 29.625C47.7969 34.125 51.4021 37.875 55.5887 37.875C57.9147 37.875 59.5428 37.125 60.9384 35.5C62.3339 34 62.7991 31.875 62.7991 30.25C62.7991 29.75 62.7991 29.25 62.6828 28.875H55.4724ZM108.271 30.625C107.806 29.375 106.643 27.25 104.084 27.25C101.526 27.25 99.4324 29.375 99.4324 32.625C99.4324 35.625 101.526 38 104.317 38C106.527 38 107.922 36.5 108.387 35.625L106.759 34.375C106.178 35.25 105.48 35.875 104.317 35.875C103.154 35.875 102.456 35.375 101.875 34.25L108.504 31.25L108.271 30.625ZM101.526 32.375C101.526 30.375 103.038 29.25 104.084 29.25C104.898 29.25 105.712 29.75 105.945 30.375L101.526 32.375ZM96.0598 37.5H98.2695V21.875H96.0598V37.5ZM92.5709 28.375C91.9895 27.75 91.0591 27.125 89.8961 27.125C87.4539 27.125 85.128 29.5 85.128 32.5C85.128 35.5 87.3376 37.75 89.8961 37.75C91.0591 37.75 91.9895 37.125 92.4547 36.5H92.5709V37.25C92.5709 39.25 91.5243 40.375 89.8961 40.375C88.6169 40.375 87.6865 39.375 87.4539 38.5L85.5932 39.375C86.1747 40.75 87.5702 42.5 90.0124 42.5C92.5709 42.5 94.6643 40.875 94.6643 37V27.5H92.5709V28.375ZM90.0124 35.75C88.5006 35.75 87.2213 34.375 87.2213 32.5C87.2213 30.625 88.5006 29.25 90.0124 29.25C91.5243 29.25 92.6872 30.625 92.6872 32.5C92.6872 34.375 91.5243 35.75 90.0124 35.75ZM118.389 21.875H113.155V37.5H115.365V31.625H118.389C120.831 31.625 123.157 29.75 123.157 26.75C123.157 23.75 120.831 21.875 118.389 21.875ZM118.505 29.375H115.365V24H118.505C120.133 24 121.064 25.5 121.064 26.625C120.947 28 120.017 29.375 118.505 29.375ZM131.879 27.125C130.251 27.125 128.623 27.875 128.041 29.5L130.018 30.375C130.484 29.5 131.181 29.25 131.995 29.25C133.158 29.25 134.205 30 134.321 31.25V31.375C133.972 31.125 133.042 30.75 132.112 30.75C130.018 30.75 127.925 32 127.925 34.25C127.925 36.375 129.669 37.75 131.53 37.75C133.042 37.75 133.74 37 134.321 36.25H134.438V37.5H136.531V31.5C136.298 28.75 134.321 27.125 131.879 27.125ZM131.646 35.75C130.949 35.75 129.902 35.375 129.902 34.375C129.902 33.125 131.181 32.75 132.228 32.75C133.158 32.75 133.624 33 134.205 33.25C133.972 34.75 132.809 35.75 131.646 35.75ZM143.858 27.5L141.415 34.25H141.299L138.741 27.5H136.415L140.252 37L138.043 42.25H140.252L146.184 27.5H143.858ZM124.32 37.5H126.529V21.875H124.32V37.5Z" fill="white"/>
<path d="M12.0941 9.375C11.7452 9.75 11.6289 10.375 11.6289 11.125V38.75C11.6289 39.5 11.8615 40.125 12.2104 40.5L12.3267 40.625L26.7474 25.125V24.875L12.0941 9.375Z" fill="url(#paint0_linear_3003_12589)"/>
<path d="M31.3971 30.375L26.6289 25.25V24.875L31.3971 19.75L31.5134 19.875L37.2119 23.375C38.84 24.375 38.84 26 37.2119 27L31.3971 30.375Z" fill="url(#paint1_linear_3003_12589)"/>
<path d="M31.5191 30.25L26.6347 25L12.0977 40.625C12.6791 41.25 13.4932 41.25 14.5399 40.75L31.5191 30.25Z" fill="url(#paint2_linear_3003_12589)"/>
<path d="M31.5191 19.7508L14.5399 9.37575C13.4932 8.75075 12.6791 8.87575 12.0977 9.50075L26.6347 25.0008L31.5191 19.7508Z" fill="url(#paint3_linear_3003_12589)"/>
<path opacity="0.2" d="M31.4028 30.125L14.5399 40.375C13.6095 41 12.7954 40.875 12.214 40.375L12.0977 40.5L12.214 40.625C12.7954 41.125 13.6095 41.25 14.5399 40.625L31.4028 30.125Z" fill="black"/>
<path opacity="0.12" d="M12.0941 40.375C11.7452 40 11.6289 39.375 11.6289 38.625V38.75C11.6289 39.5 11.8615 40.125 12.2104 40.5V40.375H12.0941ZM37.2141 26.625L31.3993 30.125L31.5156 30.25L37.2141 26.75C38.0282 26.25 38.3771 25.625 38.3771 25C38.3771 25.625 37.9119 26.125 37.2141 26.625Z" fill="black"/>
<path opacity="0.25" d="M14.5363 9.49961L37.2141 23.3746C37.9119 23.8746 38.3771 24.3746 38.3771 24.9996C38.3771 24.3746 38.0282 23.7496 37.2141 23.2496L14.5363 9.37461C12.9082 8.37461 11.6289 9.12461 11.6289 11.1246V11.2496C11.6289 9.37461 12.9082 8.49961 14.5363 9.49961Z" fill="white"/>
<defs>
<linearGradient id="paint0_linear_3003_12589" x1="25.3519" y1="10.8875" x2="4.42773" y2="30.3535" gradientUnits="userSpaceOnUse">
<stop stop-color="#00A0FF"/>
<stop offset="0.007" stop-color="#00A1FF"/>
<stop offset="0.26" stop-color="#00BEFF"/>
<stop offset="0.512" stop-color="#00D2FF"/>
<stop offset="0.76" stop-color="#00DFFF"/>
<stop offset="1" stop-color="#00E3FF"/>
</linearGradient>
<linearGradient id="paint1_linear_3003_12589" x1="39.3447" y1="25.0012" x2="11.2045" y2="25.0012" gradientUnits="userSpaceOnUse">
<stop stop-color="#FFE000"/>
<stop offset="0.409" stop-color="#FFBD00"/>
<stop offset="0.775" stop-color="#FFA500"/>
<stop offset="1" stop-color="#FF9C00"/>
</linearGradient>
<linearGradient id="paint2_linear_3003_12589" x1="28.8757" y1="27.87" x2="0.502148" y2="54.2679" gradientUnits="userSpaceOnUse">
<stop stop-color="#FF3A44"/>
<stop offset="1" stop-color="#C31162"/>
</linearGradient>
<linearGradient id="paint3_linear_3003_12589" x1="8.48898" y1="0.220749" x2="21.1597" y2="12.0092" gradientUnits="userSpaceOnUse">
<stop stop-color="#32A071"/>
<stop offset="0.069" stop-color="#2DA771"/>
<stop offset="0.476" stop-color="#15CF74"/>
<stop offset="0.801" stop-color="#06E775"/>
<stop offset="1" stop-color="#00F076"/>
</linearGradient>
</defs>
</svg>
