<svg width="157" height="48" viewBox="0 0 157 48" fill="none" xmlns="http://www.w3.org/2000/svg">
<path d="M145.925 0H11.0871C10.6571 0 10.2352 0 9.81732 0C9.45627 0 9.09927 0.0121697 8.73822 0.0121697C7.9715 0.0365102 7.1926 0.0851906 6.41371 0.227177C5.63481 0.356992 4.91677 0.588228 4.20684 0.945222C3.51314 1.30627 2.87623 1.77279 2.32451 2.32451C1.76062 2.87623 1.30627 3.50908 0.945222 4.20684C0.584172 4.91271 0.356992 5.64698 0.227177 6.42588C0.0851906 7.1926 0.0365102 7.9715 0.0121697 8.7504C0.0121697 9.09928 0 9.45627 0 9.81732V11.0871V36.0158V37.2855C0 37.6466 0.0121697 38.0036 0.0121697 38.3646C0.0365102 39.1435 0.0851906 39.9224 0.227177 40.6891C0.356992 41.468 0.588228 42.1982 0.945222 42.9082C1.30627 43.5897 1.76062 44.2388 2.32451 44.7783C2.87623 45.33 3.50908 45.7966 4.20684 46.1454C4.91271 46.5187 5.63481 46.7458 6.41371 46.8878C7.1926 47.0177 7.9715 47.0663 8.73822 47.0907C9.09927 47.0907 9.45627 47.1028 9.81732 47.1028C10.2352 47.1028 10.6571 47.1028 11.0871 47.1028H145.925C146.343 47.1028 146.765 47.1028 147.183 47.1028C147.532 47.1028 147.901 47.0907 148.25 47.0907C149.028 47.0663 149.807 47.0177 150.574 46.8878C151.353 46.7458 152.083 46.5146 152.793 46.1454C153.487 45.7966 154.124 45.33 154.675 44.7783C155.227 44.2388 155.694 43.5938 156.055 42.9082C156.416 42.2023 156.643 41.468 156.773 40.6891C156.915 39.9224 156.963 39.1435 156.988 38.3646C156.988 38.0036 156.988 37.6466 156.988 37.2855C157 36.8677 157 36.4458 157 36.0158V11.0871C157 10.6571 157 10.2352 156.988 9.81732C156.988 9.45627 156.988 9.09928 156.988 8.7504C156.963 7.9715 156.915 7.1926 156.773 6.42588C156.643 5.64698 156.412 4.91677 156.055 4.20684C155.694 3.51314 155.227 2.87623 154.675 2.32451C154.124 1.77279 153.491 1.30627 152.793 0.945222C152.087 0.584172 151.353 0.356992 150.574 0.227177C149.807 0.0851906 149.028 0.0365102 148.25 0.0121697C147.901 0.0121697 147.532 0 147.183 0C146.765 0 146.343 0 145.925 0Z" fill="#2C2E36"/>
<path d="M9.81665 46.0802C9.4556 46.0802 9.12295 46.0802 8.7619 46.068C8.11282 46.0558 7.3461 46.0193 6.59154 45.8773C5.88567 45.7556 5.24876 45.5406 4.66053 45.2404C4.06013 44.9402 3.50842 44.5346 3.04189 44.064C2.5632 43.5853 2.16564 43.0457 1.85732 42.4332C1.55712 41.8449 1.35429 41.2243 1.22042 40.5022C1.07843 39.7233 1.04192 38.9322 1.02975 38.3318C1.01758 38.0803 1.01758 37.2649 1.01758 37.2649V9.80884C1.01758 9.80884 1.02975 9.0056 1.02975 8.76626C1.04192 8.15369 1.07843 7.36263 1.22042 6.5959C1.35023 5.87786 1.55712 5.25312 1.85732 4.65272C2.16969 4.05232 2.56319 3.5006 3.03378 3.03408C3.51247 2.55538 4.06419 2.14565 4.66459 1.84951C5.26499 1.53714 5.89784 1.33431 6.5956 1.2126C7.37449 1.07062 8.16556 1.03411 8.77813 1.02194L9.82071 1.00977H147.17L148.237 1.02194C148.837 1.03411 149.628 1.07062 150.395 1.2126C151.101 1.33431 151.738 1.53714 152.338 1.84951C152.939 2.14971 153.49 2.55538 153.957 3.03408C154.435 3.5006 154.833 4.05232 155.154 4.66489C155.454 5.25312 155.657 5.88597 155.766 6.58373C155.908 7.31394 155.945 8.0685 155.969 8.77843C155.981 9.10297 155.981 9.45996 155.981 9.80884C155.981 10.2389 155.981 10.6608 155.981 11.0786V36.0073C155.981 36.4251 155.981 36.847 155.981 37.2649C155.981 37.6381 155.981 37.9829 155.969 38.344C155.945 39.0255 155.908 39.7841 155.778 40.49C155.657 41.208 155.454 41.8328 155.141 42.4332C154.829 43.0457 154.435 43.5853 153.965 44.0518C153.486 44.5305 152.934 44.9281 152.334 45.2364C151.734 45.5487 151.113 45.7394 150.391 45.8733C149.649 46.0153 148.882 46.0518 148.221 46.0639C147.884 46.0761 147.527 46.0761 147.178 46.0761H145.92H9.81665V46.0802Z" fill="black"/>
<path d="M53.4746 29.8777L50.862 22.819L48.2617 29.8777H53.4746ZM44.3672 35.115L49.7829 20.9245H51.9533L57.369 35.115H55.3691L54.075 31.472H47.6856L46.3915 35.115H44.3672ZM61.0485 33.5207V39.1636H59.3001V24.4701H61.0485V26.0765C61.4177 25.4437 61.8802 24.9772 62.44 24.6729C63.0079 24.3605 63.6773 24.2064 64.4521 24.2064C65.7462 24.2064 66.7969 24.7216 67.6042 25.752C68.4196 26.7743 68.8253 28.1252 68.8253 29.8047C68.8253 31.4761 68.4196 32.8229 67.6042 33.8574C66.7969 34.8797 65.7462 35.3908 64.4521 35.3908C63.6773 35.3908 63.0079 35.2407 62.44 34.9365C61.8802 34.6241 61.4177 34.1494 61.0485 33.5207ZM67.0038 29.8047C67.0038 28.5187 66.7361 27.5086 66.2006 26.7743C65.6813 26.04 64.9592 25.6709 64.0302 25.6709C63.1053 25.6709 62.371 26.04 61.8355 26.7743C61.3081 27.5086 61.0445 28.5187 61.0445 29.8047C61.0445 31.0907 61.3081 32.1008 61.8355 32.8351C62.371 33.5612 63.1012 33.9263 64.0302 33.9263C64.9552 33.9263 65.6813 33.5612 66.2006 32.8351C66.7361 32.1008 67.0038 31.0907 67.0038 29.8047ZM73.4175 33.5207V39.1636H71.6569V24.4701H73.4175V26.0765C73.7867 25.4437 74.2451 24.9772 74.7968 24.6729C75.3648 24.3605 76.0382 24.2064 76.8211 24.2064C78.1071 24.2064 79.1538 24.7216 79.961 25.752C80.7765 26.7743 81.1821 28.1252 81.1821 29.8047C81.1821 31.4761 80.7765 32.8229 79.961 33.8574C79.1538 34.8797 78.1071 35.3908 76.8211 35.3908C76.0382 35.3908 75.3648 35.2407 74.7968 34.9365C74.2451 34.6241 73.7826 34.1494 73.4175 33.5207ZM79.3607 29.8047C79.3607 28.5187 79.0929 27.5086 78.5574 26.7743C78.0382 26.04 77.316 25.6709 76.3871 25.6709C75.4621 25.6709 74.7278 26.04 74.1924 26.7743C73.6731 27.5086 73.4135 28.5187 73.4135 29.8047C73.4135 31.0907 73.6731 32.1008 74.1924 32.8351C74.7278 33.5612 75.4581 33.9263 76.3871 33.9263C77.312 33.9263 78.0382 33.5612 78.5574 32.8351C79.0929 32.1008 79.3607 31.0907 79.3607 29.8047ZM93.7661 33.0906V29.2814H90.6384V27.6992H95.6728V33.8006C94.9304 34.3279 94.111 34.7255 93.2144 34.9973C92.326 35.261 91.3767 35.3908 90.3625 35.3908C88.1394 35.3908 86.4032 34.7417 85.1496 33.4476C83.9042 32.1535 83.2795 30.3483 83.2795 28.0319C83.2795 25.7155 83.9042 23.9102 85.1496 22.6161C86.4032 21.3139 88.1435 20.6608 90.3625 20.6608C91.2875 20.6608 92.1637 20.7784 92.9873 21.0097C93.827 21.2328 94.5978 21.5695 95.2996 22.0157V24.0644C94.5897 23.4559 93.8351 23.0015 93.0359 22.6973C92.2368 22.393 91.397 22.2429 90.5207 22.2429C88.7885 22.2429 87.4823 22.7257 86.6019 23.6912C85.7379 24.6648 85.3078 26.113 85.3078 28.0278C85.3078 29.9426 85.7379 31.3868 86.6019 32.3523C87.4823 33.3178 88.7885 33.8006 90.5207 33.8006C91.1982 33.8006 91.8067 33.7438 92.3422 33.6342C92.8696 33.5207 93.3442 33.3381 93.7661 33.0906ZM105.62 29.756H103.884C102.468 29.756 101.49 29.9183 100.947 30.2469C100.403 30.5673 100.131 31.1191 100.131 31.902C100.131 32.5267 100.334 33.0217 100.744 33.3868C101.149 33.7478 101.705 33.9263 102.411 33.9263C103.385 33.9263 104.164 33.5815 104.748 32.8959C105.332 32.2103 105.624 31.2935 105.624 30.1495V29.756H105.62ZM107.368 29.038V35.115H105.62V33.4963C105.222 34.1454 104.723 34.6241 104.135 34.9365C103.535 35.2407 102.805 35.3908 101.94 35.3908C100.853 35.3908 99.9851 35.0866 99.3401 34.478C98.6991 33.8614 98.3827 33.0379 98.3827 32.0075C98.3827 30.8189 98.7803 29.9142 99.5795 29.2976C100.387 28.6891 101.583 28.3848 103.174 28.3848H105.62V28.2185C105.62 27.4112 105.356 26.7865 104.829 26.3483C104.302 25.9102 103.559 25.6911 102.602 25.6911C101.993 25.6911 101.405 25.7642 100.829 25.9061C100.253 26.0481 99.6971 26.2713 99.1616 26.5633V24.9447C99.8026 24.6972 100.423 24.5147 101.032 24.393C101.632 24.2632 102.212 24.2023 102.78 24.2023C104.322 24.2023 105.474 24.5999 106.233 25.3991C106.991 26.2063 107.368 27.4153 107.368 29.038ZM110.975 35.115V20.3281H112.723V35.115H110.975ZM116.382 35.115V20.3281H118.131V35.115H116.382ZM130.845 29.3503V30.2144H122.804C122.877 31.4111 123.234 32.332 123.883 32.9689C124.537 33.5937 125.445 33.902 126.605 33.902C127.275 33.902 127.924 33.8208 128.549 33.6626C129.19 33.4963 129.814 33.2489 130.431 32.9203V34.5754C129.806 34.8391 129.165 35.0419 128.5 35.188C127.847 35.3218 127.177 35.3908 126.5 35.3908C124.804 35.3908 123.462 34.8959 122.459 33.906C121.47 32.9243 120.975 31.5896 120.975 29.902C120.975 28.1536 121.445 26.7702 122.391 25.756C123.332 24.7256 124.606 24.2104 126.2 24.2104C127.632 24.2104 128.76 24.6729 129.591 25.6019C130.427 26.5187 130.845 27.7682 130.845 29.3503ZM122.853 28.8473H129.096C129.08 27.8899 128.808 27.1232 128.281 26.5471C127.762 25.9792 127.072 25.6952 126.208 25.6952C125.234 25.6952 124.451 25.9711 123.859 26.5228C123.275 27.0745 122.942 27.8493 122.853 28.8473ZM139.81 24.3037L139.822 26.1009C139.624 25.9873 139.409 25.9061 139.173 25.8494C138.938 25.7926 138.691 25.7642 138.419 25.7642C137.429 25.7642 136.666 26.0887 136.131 26.7337C135.603 27.3747 135.34 28.2956 135.34 29.5004V35.1109H133.591V24.4701H135.34V26.1252C135.709 25.4761 136.188 24.9974 136.78 24.6851C137.372 24.3646 138.086 24.2064 138.926 24.2064C139.048 24.2064 139.181 24.2185 139.331 24.2429C139.473 24.251 139.636 24.2713 139.81 24.3037ZM150.763 24.4701L146.09 36.0967C145.595 37.3664 145.112 38.1981 144.642 38.5875C144.171 38.9729 143.542 39.1636 142.759 39.1636H141.356V37.7032H142.386C142.865 37.7032 143.242 37.5855 143.514 37.3543C143.778 37.1312 144.07 36.5916 144.39 35.7356L144.715 34.9446L140.398 24.4701H142.256L145.587 32.7864L148.905 24.4701H150.763Z" fill="white"/>
<path d="M44.2598 15.9386V8.61615H48.8844V9.44372H45.2415V11.6141H48.7303V12.4538H45.2415V15.1029H48.9818V15.9426H44.2598V15.9386ZM52.5315 12.0319L50.2556 8.61615H51.3225L53.144 11.3382L54.9655 8.61615H56.0324L53.6836 12.1293L56.1866 15.9386H55.1197L53.071 12.823L50.9858 15.9386H49.9189L52.5315 12.0319ZM59.72 9.43155H58.4746V12.178H59.72C60.1825 12.178 60.5435 12.0603 60.7991 11.8291C61.0466 11.5897 61.1723 11.2449 61.1723 10.7987C61.1723 10.3687 61.0466 10.0319 60.7991 9.7926C60.5435 9.55325 60.1825 9.43155 59.72 9.43155ZM57.4929 15.9386V8.61615H59.72C60.5435 8.61615 61.1642 8.7987 61.5902 9.16786C62.004 9.54514 62.2149 10.0847 62.2149 10.7987C62.2149 11.5248 62.008 12.0725 61.5902 12.4417C61.1683 12.8108 60.5435 12.9934 59.72 12.9934H58.4746V15.9426H57.4929V15.9386ZM63.5455 15.9386V8.61615H64.5394V15.0988H68.1093V15.9386H63.5455ZM71.7645 9.28957C71.0464 9.28957 70.4704 9.55731 70.0404 10.0928C69.6266 10.6283 69.4156 11.3585 69.4156 12.2875C69.4156 13.2043 69.6225 13.9386 70.0404 14.4822C70.4704 15.0177 71.0464 15.2854 71.7645 15.2854C72.4825 15.2854 73.0505 15.0177 73.4642 14.4822C73.8862 13.9386 74.1012 13.2084 74.1012 12.2875C74.1012 11.3626 73.8902 10.6283 73.4642 10.0928C73.0505 9.55325 72.4825 9.28957 71.7645 9.28957ZM71.7645 8.48633C72.7868 8.48633 73.6062 8.83115 74.2229 9.51674C74.8395 10.2023 75.1437 11.1273 75.1437 12.2834C75.1437 13.4437 74.8354 14.3646 74.2229 15.0501C73.6062 15.7357 72.7868 16.0806 71.7645 16.0806C70.7341 16.0806 69.9065 15.7357 69.2817 15.0501C68.6651 14.3646 68.3609 13.4396 68.3609 12.2834C68.3609 11.1232 68.6692 10.2023 69.2817 9.51674C69.9065 8.8271 70.7341 8.48633 71.7645 8.48633ZM80.166 12.4984C80.381 12.5715 80.5879 12.7256 80.7907 12.965C80.9895 13.1962 81.1923 13.5207 81.4033 13.9345L82.4094 15.9345H81.3424L80.4094 14.0522C80.1619 13.5654 79.9266 13.2408 79.7035 13.0826C79.4723 12.9244 79.1599 12.8433 78.7705 12.8433H77.6914V15.9345H76.6975V8.61615H78.9368C79.7765 8.61615 80.4013 8.79059 80.8191 9.14352C81.2248 9.48835 81.4317 10.0157 81.4317 10.7257C81.4317 11.1881 81.3222 11.5735 81.1072 11.8778C80.884 12.178 80.5757 12.3889 80.166 12.4984ZM78.9327 9.43155H77.6873V12.0319H78.9327C79.4114 12.0319 79.7725 11.9183 80.0118 11.6952C80.2593 11.4721 80.3851 11.1476 80.3851 10.7257C80.3851 10.2956 80.2593 9.9711 80.0118 9.75609C79.7725 9.54108 79.4114 9.43155 78.9327 9.43155ZM83.6791 15.9386V8.61615H88.3038V9.44372H84.673V11.6141H88.1618V12.4538H84.673V15.1029H88.4012V15.9426H83.6791V15.9386ZM93.2165 15.9386V8.61615H94.2104V15.9386H93.2165ZM95.1719 9.44372V8.61615H101.367V9.44372H98.7661V15.9386H97.7723V9.44372H95.1719ZM108.486 9.28957C107.768 9.28957 107.196 9.55731 106.774 10.0928C106.352 10.6283 106.137 11.3585 106.137 12.2875C106.137 13.2043 106.348 13.9386 106.774 14.4822C107.196 15.0177 107.768 15.2854 108.486 15.2854C109.204 15.2854 109.776 15.0177 110.198 14.4822C110.612 13.9386 110.823 13.2084 110.823 12.2875C110.823 11.3626 110.616 10.6283 110.198 10.0928C109.776 9.55325 109.204 9.28957 108.486 9.28957ZM108.486 8.48633C109.517 8.48633 110.34 8.83115 110.957 9.51674C111.573 10.2023 111.878 11.1273 111.878 12.2834C111.878 13.4437 111.569 14.3646 110.957 15.0501C110.344 15.7357 109.517 16.0806 108.486 16.0806C107.456 16.0806 106.632 15.7357 106.016 15.0501C105.399 14.3646 105.095 13.4396 105.095 12.2834C105.095 11.1232 105.403 10.2023 106.016 9.51674C106.632 8.8271 107.456 8.48633 108.486 8.48633ZM113.423 15.9386V8.61615H114.754L118.003 14.7418V8.61615H118.973V15.9386H117.63L114.381 9.81288V15.9386H113.423Z" fill="white"/>
<path d="M31.725 8.64062H18.6867C12.5366 8.64062 10.2852 10.8799 10.2852 17.03V30.0683C10.2852 36.2184 12.5366 38.4699 18.6867 38.4699H31.725C37.8629 38.4699 40.1144 36.2184 40.1144 30.0683V17.03C40.1144 10.8799 37.8751 8.64062 31.725 8.64062Z" fill="#DA4256"/>
<path fill-rule="evenodd" clip-rule="evenodd" d="M23.0146 26.641L22.6535 27.4442H21.8503L23.5622 23.5497H24.2559L25.9679 27.4442H25.1403L24.7914 26.641H23.0146ZM23.2985 25.9351H24.4953L23.8949 24.5436L23.2985 25.9351ZM36.0042 23.5497H36.7953V27.4442H36.0042V23.5497ZM32.9008 26.7383H35.0712V27.4442H32.1219V23.5497H34.986V24.2678H32.9008V25.0589H34.341V25.7769H32.9008V26.7383ZM30.6575 23.5497H31.485L30.1301 27.4564H29.4607L28.5723 24.8925L27.6839 27.4564H27.0348L25.6677 23.5497H26.5196L27.3837 26.2353L28.2599 23.5497H28.909L29.7974 26.2353L30.6575 23.5497ZM20.6535 23.5497H21.4446V25.7566C21.4446 26.8722 20.832 27.5172 19.7529 27.5172C18.6982 27.5172 18.0856 26.8803 18.0856 25.781V23.5538H18.8767V25.7607C18.8767 26.4179 19.1891 26.7667 19.7651 26.7667C20.3412 26.7667 20.6535 26.4179 20.6535 25.785V23.5497ZM16.1952 23.5497H16.9862V27.4564H16.1952V25.8621H14.4102V27.4564H13.6191V23.5497H14.4102V25.1197H16.1952V23.5497ZM25.2052 18.5884C22.4588 18.5884 20.2438 16.3612 20.2438 13.627H20.9375C20.9375 15.9758 22.8563 17.8825 25.2052 17.8825C27.5541 17.8825 29.4729 15.9758 29.4729 13.627H30.1666C30.1666 16.3571 27.9394 18.5884 25.2052 18.5884Z" fill="white"/>
</svg>
