<svg width="32" height="32" viewBox="0 0 32 32" fill="none" xmlns="http://www.w3.org/2000/svg">
<circle cx="16" cy="16" r="16" fill="#EAEAEA"/>
<path d="M16.7459 3.33656C16.5287 3.03129 16.1538 2.96953 15.8766 3.01198C15.5995 3.05443 15.2606 3.22552 15.1456 3.58166C15.0823 3.77772 15.1279 3.98617 15.1555 4.09035C15.1721 4.15308 15.1908 4.20752 15.2052 4.24619C15.2078 4.25314 15.2103 4.25965 15.2126 4.26569C15.2583 4.59362 15.2493 4.95565 15.2165 5.37498C15.1767 5.88349 15.1444 6.39743 15.0742 6.90201C15.0593 7.00874 15.0392 7.22113 15.1257 7.4082C15.2828 7.74802 15.6399 7.87734 15.9202 7.88634C16.2005 7.89534 16.5652 7.7892 16.744 7.46017C16.8424 7.27904 16.8361 7.0658 16.8282 6.95834C16.7926 6.47504 16.8687 5.98776 16.9064 5.50598C16.9422 5.04762 16.9636 4.53229 16.8884 4.01138C16.8888 4.00426 16.8893 3.99651 16.8897 3.98819C16.8918 3.947 16.8931 3.88949 16.89 3.82468C16.8849 3.71706 16.8655 3.50461 16.7459 3.33656Z" fill="url(#paint0_linear_3003_12451)"/>
<path d="M19.8274 3.97027C19.6748 3.62839 19.3195 3.49434 19.0394 3.48162C18.7592 3.4689 18.3932 3.57019 18.21 3.89682C18.1091 4.07663 18.1126 4.28993 18.119 4.39748C18.1229 4.46224 18.1305 4.51928 18.1369 4.56001C18.1381 4.56734 18.1392 4.57421 18.1403 4.58059C18.1203 4.91106 18.0398 5.26422 17.9247 5.66891C17.8017 6.10142 17.6602 6.52867 17.5546 6.966C17.5515 6.97233 17.5483 6.97922 17.5448 6.98662C17.5274 7.02406 17.5046 7.07689 17.4831 7.13814C17.4474 7.23986 17.3857 7.44416 17.4335 7.64452C17.5203 8.00849 17.8448 8.20528 18.1179 8.26906C18.3909 8.33284 18.7694 8.30028 19.0098 8.01275C19.1421 7.85446 19.1782 7.64416 19.1917 7.53726C19.1998 7.47289 19.2029 7.41545 19.2041 7.37422C19.2043 7.3665 19.2044 7.35926 19.2045 7.35256C19.3044 6.94009 19.4395 6.53674 19.5556 6.12866C19.6814 5.68631 19.8043 5.18527 19.8336 4.6598C19.8355 4.65291 19.8374 4.6454 19.8395 4.63733C19.8496 4.59734 19.8624 4.54123 19.8722 4.47709C19.8885 4.37058 19.9114 4.15847 19.8274 3.97027Z" fill="url(#paint1_linear_3003_12451)"/>
<path fill-rule="evenodd" clip-rule="evenodd" d="M27.7903 10.7952C27.7475 11.0272 27.4457 11.1532 27.4457 11.1532C27.0916 11.5213 26.65 11.7567 26.2224 11.9494C26.0668 12.0195 25.917 12.0825 25.7718 12.1436C25.4997 12.2581 25.2439 12.3658 24.9979 12.4998C24.9979 12.4998 24.7716 12.7119 24.5694 12.7332C24.4051 12.7505 24.2975 12.7786 24.1087 12.6573C23.6899 12.3881 23.5693 11.6744 23.7359 11.3343C23.8283 11.1456 24.1644 11.1009 24.1644 11.1009C24.4351 10.9534 24.7399 10.8248 25.0295 10.7027C25.1678 10.6443 25.3027 10.5874 25.4287 10.5307C25.838 10.3462 26.196 10.1475 26.4688 9.864C26.4688 9.864 26.6119 9.52878 26.8134 9.50596C27.0538 9.47874 27.2937 9.58408 27.5261 9.87884C27.7693 10.1872 27.8438 10.5058 27.7903 10.7952Z" fill="url(#paint2_linear_3003_12451)"/>
<path d="M28.7709 14.6778C29.0368 14.4134 29.0351 14.0351 28.9465 13.7702C28.858 13.5053 28.6318 13.2014 28.2598 13.1483C28.055 13.1191 27.8563 13.1988 27.7577 13.2433C27.6984 13.2702 27.6476 13.2976 27.6117 13.3183C27.6053 13.322 27.5993 13.3255 27.5937 13.3288C27.2766 13.4287 26.9166 13.4805 26.4958 13.5186C25.8568 13.5766 25.1884 13.5448 24.5706 13.7221C24.3664 13.7807 24.2545 13.9511 24.2016 14.0535C24.1394 14.1737 24.1 14.3129 24.083 14.4455C24.0663 14.5753 24.0671 14.7304 24.114 14.8746C24.162 15.0222 24.2807 15.2105 24.5219 15.2648C24.5422 15.2693 24.5623 15.2739 24.5822 15.2785C24.691 15.3035 24.7953 15.3274 24.9 15.3377C25.0366 15.3511 25.1672 15.3423 25.3394 15.3166C25.7723 15.2522 26.2137 15.2387 26.6496 15.1992C27.1095 15.1575 27.6234 15.092 28.1266 14.9308C28.1337 14.93 28.1415 14.9292 28.1498 14.9282C28.1909 14.9233 28.2481 14.915 28.3117 14.9011C28.4174 14.8781 28.6246 14.8233 28.7709 14.6778Z" fill="url(#paint3_linear_3003_12451)"/>
<path d="M23.1774 5.77766C23.1776 5.40356 22.9077 5.13729 22.657 5.0123C22.4062 4.8873 22.0304 4.83168 21.7296 5.05596C21.5641 5.17943 21.4801 5.37571 21.4421 5.47659C21.4192 5.53733 21.4028 5.59249 21.3921 5.63233C21.3902 5.63949 21.3884 5.64623 21.3868 5.65251C21.0099 6.37522 20.3725 6.9528 19.8776 7.59484C19.8722 7.59939 19.8664 7.60436 19.8602 7.60974C19.8291 7.63691 19.7866 7.67592 19.742 7.72319C19.6678 7.80169 19.528 7.96337 19.4899 8.16577C19.4206 8.53345 19.6367 8.84457 19.8601 9.01334C20.0835 9.1821 20.4427 9.30556 20.7797 9.14014C21.0527 9.00615 21.1994 8.65074 21.3923 8.41591C21.6074 8.15414 21.8303 7.89944 22.0477 7.63965C22.3433 7.28642 22.6602 6.87839 22.9015 6.41015C22.906 6.4046 22.9109 6.39854 22.9161 6.39199C22.9417 6.35958 22.9762 6.31346 23.0114 6.25883C23.0697 6.1681 23.1773 5.98359 23.1774 5.77766Z" fill="url(#paint4_linear_3003_12451)"/>
<path d="M25.8907 7.83659C25.9771 7.47252 25.7757 7.15174 25.5604 6.97283C25.3451 6.79393 24.9921 6.65401 24.6477 6.80367C24.4582 6.88605 24.3312 7.05794 24.271 7.14746C24.2347 7.20136 24.2061 7.25131 24.1865 7.28764C24.1829 7.29417 24.1797 7.30033 24.1767 7.30607C23.9598 7.55709 23.681 7.78973 23.3434 8.04255C23.236 8.123 23.1208 8.20666 22.9999 8.29444L22.9954 8.29768C22.6957 8.51537 22.4069 8.74301 22.0987 8.94616C22.0085 9.00564 21.8352 9.1311 21.7514 9.31941C21.5993 9.66147 21.738 10.0136 21.9166 10.2289C22.0952 10.4442 22.4163 10.6463 22.7825 10.5622C22.9841 10.5159 23.1406 10.3702 23.2163 10.2932C23.5569 9.94705 23.9744 9.6816 24.3623 9.39113C24.7314 9.11477 25.1338 8.78995 25.4765 8.38926C25.4822 8.38489 25.4883 8.3801 25.4949 8.37491C25.5273 8.34921 25.5715 8.3122 25.6183 8.26705C25.696 8.19206 25.8432 8.03701 25.8907 7.83659Z" fill="url(#paint5_linear_3003_12451)"/>
<path d="M12.1726 3.97027C12.3252 3.62839 12.6805 3.49434 12.9606 3.48162C13.2408 3.4689 13.6068 3.57019 13.79 3.89682C13.8909 4.07663 13.8874 4.28993 13.881 4.39748C13.8771 4.46224 13.8695 4.51928 13.8631 4.56001C13.8619 4.56734 13.8608 4.57421 13.8597 4.58059C13.8797 4.91106 13.9602 5.26422 14.0753 5.66891C14.1983 6.10142 14.3398 6.52867 14.4454 6.966C14.4485 6.97233 14.4517 6.97922 14.4552 6.98662C14.4726 7.02406 14.4954 7.07689 14.5169 7.13814C14.5526 7.23986 14.6143 7.44416 14.5665 7.64452C14.4797 8.00849 14.1552 8.20528 13.8821 8.26906C13.6091 8.33284 13.2306 8.30028 12.9902 8.01275C12.8579 7.85446 12.8218 7.64416 12.8083 7.53726C12.8002 7.47289 12.7971 7.41545 12.7959 7.37422C12.7957 7.3665 12.7956 7.35926 12.7955 7.35256C12.6956 6.94009 12.5605 6.53674 12.4444 6.12866C12.3186 5.68631 12.1957 5.18527 12.1664 4.6598C12.1645 4.65291 12.1626 4.6454 12.1605 4.63733C12.1503 4.59734 12.1376 4.54123 12.1278 4.47709C12.1115 4.37058 12.0886 4.15847 12.1726 3.97027Z" fill="url(#paint6_linear_3003_12451)"/>
<path fill-rule="evenodd" clip-rule="evenodd" d="M4.20969 10.7952C4.25253 11.0272 4.55427 11.1532 4.55427 11.1532C4.90845 11.5213 5.34999 11.7567 5.77762 11.9494C5.93316 12.0195 6.08299 12.0825 6.22815 12.1436C6.50034 12.2581 6.75607 12.3658 7.00206 12.4998C7.00206 12.4998 7.22838 12.7119 7.43057 12.7332C7.59487 12.7505 7.70246 12.7786 7.89127 12.6573C8.31011 12.3881 8.43066 11.6744 8.26411 11.3343C8.17171 11.1456 7.8356 11.1009 7.8356 11.1009C7.5649 10.9534 7.26007 10.8248 6.97045 10.7027C6.83216 10.6443 6.69733 10.5874 6.57134 10.5307C6.16196 10.3462 5.80401 10.1475 5.53116 9.864C5.53116 9.864 5.38814 9.52878 5.18657 9.50596C4.94623 9.47874 4.70625 9.58408 4.47386 9.87884C4.23073 10.1872 4.15625 10.5058 4.20969 10.7952Z" fill="url(#paint7_linear_3003_12451)"/>
<path d="M3.22908 14.6778C2.96321 14.4134 2.96493 14.0351 3.05346 13.7702C3.14198 13.5053 3.36824 13.2014 3.7402 13.1483C3.94496 13.1191 4.14374 13.1988 4.24227 13.2433C4.3016 13.2702 4.35238 13.2976 4.38825 13.3183C4.3947 13.322 4.40074 13.3255 4.40633 13.3288C4.72338 13.4287 5.08341 13.4805 5.50416 13.5186C6.1432 13.5766 6.81156 13.5448 7.42941 13.7221C7.63358 13.7807 7.74548 13.9511 7.79843 14.0535C7.8606 14.1737 7.90002 14.3129 7.91703 14.4455C7.93366 14.5753 7.9329 14.7304 7.88598 14.8746C7.83796 15.0222 7.71927 15.2105 7.47809 15.2648C7.45782 15.2693 7.43773 15.2739 7.41778 15.2785C7.30903 15.3035 7.2047 15.3274 7.09996 15.3377C6.9634 15.3511 6.83277 15.3423 6.66056 15.3166C6.22768 15.2522 5.78628 15.2387 5.35044 15.1992C4.89053 15.1575 4.37663 15.092 3.87342 14.9308C3.8663 14.93 3.85854 14.9292 3.85024 14.9282C3.8091 14.9233 3.75192 14.915 3.68827 14.9011C3.58255 14.8781 3.37543 14.8233 3.22908 14.6778Z" fill="url(#paint8_linear_3003_12451)"/>
<path d="M8.82258 5.77766C8.82237 5.40356 9.09225 5.13729 9.34301 5.0123C9.59377 4.8873 9.96961 4.83168 10.2704 5.05596C10.4359 5.17943 10.5199 5.37571 10.5579 5.47659C10.5808 5.53733 10.5972 5.59249 10.6079 5.63233C10.6098 5.63949 10.6116 5.64623 10.6132 5.65251C10.9901 6.37522 11.6275 6.9528 12.1224 7.59484C12.1278 7.59939 12.1336 7.60436 12.1398 7.60974C12.1709 7.63691 12.2134 7.67592 12.258 7.72319C12.3322 7.80169 12.472 7.96337 12.5101 8.16577C12.5794 8.53345 12.3633 8.84457 12.1399 9.01334C11.9165 9.1821 11.5573 9.30556 11.2203 9.14014C10.9473 9.00615 10.8006 8.65074 10.6077 8.41591C10.3926 8.15414 10.1697 7.89944 9.95229 7.63965C9.65671 7.28642 9.3398 6.87839 9.0985 6.41015C9.09399 6.4046 9.08912 6.39854 9.08394 6.39199C9.05832 6.35958 9.02379 6.31346 8.98864 6.25883C8.93027 6.1681 8.8227 5.98359 8.82258 5.77766Z" fill="url(#paint9_linear_3003_12451)"/>
<path d="M6.10926 7.83659C6.0229 7.47252 6.22427 7.15174 6.43956 6.97283C6.65485 6.79393 7.00787 6.65401 7.35226 6.80367C7.54184 6.88605 7.66877 7.05794 7.72899 7.14746C7.76525 7.20136 7.79393 7.25131 7.81354 7.28764C7.81706 7.29417 7.82033 7.30033 7.82334 7.30607C8.04017 7.55709 8.31895 7.78973 8.65659 8.04255C8.76402 8.123 8.87922 8.20666 9.0001 8.29444L9.00455 8.29768C9.30433 8.51537 9.59313 8.74301 9.90126 8.94616C9.99149 9.00564 10.1648 9.1311 10.2486 9.31941C10.4007 9.66147 10.262 10.0136 10.0834 10.2289C9.90482 10.4442 9.58366 10.6463 9.2175 10.5622C9.01594 10.5159 8.85943 10.3702 8.7837 10.2932C8.44308 9.94705 8.02563 9.6816 7.63771 9.39113C7.26864 9.11477 6.86621 8.78995 6.52349 8.38926C6.51783 8.38489 6.51169 8.3801 6.50514 8.37491C6.47274 8.34921 6.42851 8.3122 6.38171 8.26705C6.30401 8.19206 6.15681 8.03701 6.10926 7.83659Z" fill="url(#paint10_linear_3003_12451)"/>
<path d="M16.7459 28.6634C16.5287 28.9687 16.1538 29.0305 15.8766 28.988C15.5995 28.9456 15.2606 28.7745 15.1456 28.4183C15.0823 28.2223 15.1279 28.0138 15.1555 27.9097C15.1721 27.8469 15.1908 27.7925 15.2052 27.7538C15.2078 27.7469 15.2103 27.7403 15.2126 27.7343C15.2583 27.4064 15.2493 27.0444 15.2165 26.625C15.1767 26.1165 15.1444 25.6026 15.0742 25.098C15.0593 24.9913 15.0392 24.7789 15.1257 24.5918C15.2828 24.252 15.6399 24.1227 15.9202 24.1137C16.2005 24.1047 16.5652 24.2108 16.744 24.5398C16.8424 24.721 16.8361 24.9342 16.8282 25.0417C16.7926 25.525 16.8687 26.0122 16.9064 26.494C16.9422 26.9524 16.9636 27.4677 16.8884 27.9886C16.8888 27.9957 16.8893 28.0035 16.8897 28.0118C16.8918 28.053 16.8931 28.1105 16.89 28.1753C16.8849 28.2829 16.8655 28.4954 16.7459 28.6634Z" fill="url(#paint11_linear_3003_12451)"/>
<path d="M19.8274 28.0297C19.6748 28.3716 19.3195 28.5057 19.0394 28.5184C18.7592 28.5311 18.3932 28.4298 18.21 28.1032C18.1091 27.9234 18.1126 27.7101 18.119 27.6025C18.1229 27.5378 18.1305 27.4807 18.1369 27.44C18.1381 27.4327 18.1392 27.4258 18.1403 27.4194C18.1203 27.0889 18.0398 26.7358 17.9247 26.3311C17.8017 25.8986 17.6602 25.4713 17.5546 25.034C17.5515 25.0277 17.5483 25.0208 17.5448 25.0134C17.5274 24.9759 17.5046 24.9231 17.4831 24.8619C17.4474 24.7601 17.3857 24.5558 17.4335 24.3555C17.5203 23.9915 17.8448 23.7947 18.1179 23.7309C18.3909 23.6672 18.7694 23.6997 19.0098 23.9873C19.1421 24.1455 19.1782 24.3558 19.1917 24.4627C19.1998 24.5271 19.2029 24.5846 19.2041 24.6258C19.2043 24.6335 19.2044 24.6407 19.2045 24.6474C19.3044 25.0599 19.4395 25.4633 19.5556 25.8713C19.6814 26.3137 19.8043 26.8147 19.8336 27.3402C19.8355 27.3471 19.8374 27.3546 19.8395 27.3627C19.8496 27.4027 19.8624 27.4588 19.8722 27.5229C19.8885 27.6294 19.9114 27.8415 19.8274 28.0297Z" fill="url(#paint12_linear_3003_12451)"/>
<path fill-rule="evenodd" clip-rule="evenodd" d="M27.7903 21.2048C27.7475 20.9728 27.4457 20.8468 27.4457 20.8468C27.0916 20.4788 26.65 20.2433 26.2224 20.0506C26.0668 19.9806 25.917 19.9175 25.7718 19.8564C25.4997 19.7419 25.2439 19.6342 24.9979 19.5002C24.9979 19.5002 24.7716 19.2881 24.5694 19.2668C24.4051 19.2495 24.2975 19.2214 24.1087 19.3427C23.6899 19.6119 23.5693 20.3256 23.7359 20.6657C23.8283 20.8544 24.1644 20.8992 24.1644 20.8992C24.4351 21.0466 24.7399 21.1752 25.0295 21.2974C25.1678 21.3557 25.3027 21.4126 25.4287 21.4693C25.838 21.6538 26.196 21.8525 26.4688 22.136C26.4688 22.136 26.6119 22.4712 26.8134 22.4941C27.0538 22.5213 27.2937 22.4159 27.5261 22.1212C27.7693 21.8128 27.8438 21.4942 27.7903 21.2048Z" fill="url(#paint13_linear_3003_12451)"/>
<path d="M28.7709 17.3222C29.0368 17.5866 29.0351 17.9649 28.9465 18.2298C28.858 18.4947 28.6318 18.7986 28.2598 18.8517C28.055 18.8809 27.8563 18.8012 27.7577 18.7567C27.6984 18.7298 27.6476 18.7024 27.6117 18.6817C27.6053 18.678 27.5993 18.6745 27.5937 18.6712C27.2766 18.5713 26.9166 18.5195 26.4958 18.4814C25.8568 18.4234 25.1884 18.4552 24.5706 18.2779C24.3664 18.2193 24.2545 18.0489 24.2016 17.9465C24.1394 17.8263 24.1 17.6871 24.083 17.5545C24.0663 17.4247 24.0671 17.2696 24.114 17.1254C24.162 16.9778 24.2807 16.7895 24.5219 16.7352C24.5422 16.7307 24.5623 16.7261 24.5822 16.7215C24.691 16.6965 24.7953 16.6726 24.9 16.6623C25.0366 16.6489 25.1672 16.6577 25.3394 16.6834C25.7723 16.7478 26.2137 16.7613 26.6496 16.8008C27.1095 16.8425 27.6234 16.908 28.1266 17.0692C28.1337 17.07 28.1415 17.0708 28.1498 17.0718C28.1909 17.0767 28.2481 17.085 28.3117 17.0989C28.4174 17.1219 28.6246 17.1767 28.7709 17.3222Z" fill="url(#paint14_linear_3003_12451)"/>
<path d="M23.1774 26.2224C23.1776 26.5965 22.9077 26.8627 22.657 26.9877C22.4062 27.1127 22.0304 27.1683 21.7296 26.9441C21.5641 26.8206 21.4801 26.6243 21.4421 26.5234C21.4192 26.4627 21.4028 26.4075 21.3921 26.3677C21.3902 26.3605 21.3884 26.3538 21.3868 26.3475C21.0099 25.6248 20.3725 25.0472 19.8776 24.4052C19.8722 24.4006 19.8664 24.3957 19.8602 24.3903C19.8291 24.3631 19.7866 24.3241 19.742 24.2768C19.6678 24.1983 19.528 24.0366 19.4899 23.8342C19.4206 23.4666 19.6367 23.1554 19.8601 22.9867C20.0835 22.8179 20.4427 22.6945 20.7797 22.8599C21.0527 22.9939 21.1994 23.3493 21.3923 23.5841C21.6074 23.8459 21.8303 24.1006 22.0477 24.3604C22.3433 24.7136 22.6602 25.1216 22.9015 25.5899C22.906 25.5954 22.9109 25.6015 22.9161 25.608C22.9417 25.6404 22.9762 25.6866 23.0114 25.7412C23.0697 25.8319 23.1773 26.0164 23.1774 26.2224Z" fill="url(#paint15_linear_3003_12451)"/>
<path d="M25.8907 24.1634C25.9771 24.5275 25.7757 24.8483 25.5604 25.0272C25.3451 25.2061 24.9921 25.346 24.6477 25.1963C24.4582 25.114 24.3312 24.9421 24.271 24.8526C24.2347 24.7986 24.2061 24.7487 24.1865 24.7124C24.1829 24.7058 24.1797 24.6997 24.1767 24.6939C23.9598 24.4429 23.681 24.2103 23.3434 23.9575C23.236 23.877 23.1208 23.7933 22.9999 23.7056L22.9954 23.7023C22.6957 23.4846 22.4069 23.257 22.0987 23.0539C22.0085 22.9944 21.8352 22.8689 21.7514 22.6806C21.5993 22.3385 21.738 21.9864 21.9166 21.7711C22.0952 21.5559 22.4163 21.3537 22.7825 21.4378C22.9841 21.4841 23.1406 21.6298 23.2163 21.7068C23.5569 22.053 23.9744 22.3184 24.3623 22.6089C24.7314 22.8852 25.1338 23.2101 25.4765 23.6108C25.4822 23.6151 25.4883 23.6199 25.4949 23.6251C25.5273 23.6508 25.5715 23.6878 25.6183 23.733C25.696 23.808 25.8432 23.963 25.8907 24.1634Z" fill="url(#paint16_linear_3003_12451)"/>
<path d="M12.1726 28.0297C12.3252 28.3716 12.6805 28.5057 12.9606 28.5184C13.2408 28.5311 13.6068 28.4298 13.79 28.1032C13.8909 27.9234 13.8874 27.7101 13.881 27.6025C13.8771 27.5378 13.8695 27.4807 13.8631 27.44C13.8619 27.4327 13.8608 27.4258 13.8597 27.4194C13.8797 27.0889 13.9602 26.7358 14.0753 26.3311C14.1983 25.8986 14.3398 25.4713 14.4454 25.034C14.4485 25.0277 14.4517 25.0208 14.4552 25.0134C14.4726 24.9759 14.4954 24.9231 14.5169 24.8619C14.5526 24.7601 14.6143 24.5558 14.5665 24.3555C14.4797 23.9915 14.1552 23.7947 13.8821 23.7309C13.6091 23.6672 13.2306 23.6997 12.9902 23.9873C12.8579 24.1455 12.8218 24.3558 12.8083 24.4627C12.8002 24.5271 12.7971 24.5846 12.7959 24.6258C12.7957 24.6335 12.7956 24.6407 12.7955 24.6474C12.6956 25.0599 12.5605 25.4633 12.4444 25.8713C12.3186 26.3137 12.1957 26.8147 12.1664 27.3402C12.1645 27.3471 12.1626 27.3546 12.1605 27.3627C12.1503 27.4027 12.1376 27.4588 12.1278 27.5229C12.1115 27.6294 12.0886 27.8415 12.1726 28.0297Z" fill="url(#paint17_linear_3003_12451)"/>
<path fill-rule="evenodd" clip-rule="evenodd" d="M4.20969 21.2048C4.25253 20.9728 4.55427 20.8468 4.55427 20.8468C4.90845 20.4788 5.34999 20.2433 5.77762 20.0506C5.93316 19.9806 6.08299 19.9175 6.22815 19.8564C6.50034 19.7419 6.75607 19.6342 7.00206 19.5002C7.00206 19.5002 7.22838 19.2881 7.43057 19.2668C7.59487 19.2495 7.70246 19.2214 7.89127 19.3427C8.31011 19.6119 8.43066 20.3256 8.26411 20.6657C8.17171 20.8544 7.8356 20.8992 7.8356 20.8992C7.5649 21.0466 7.26007 21.1752 6.97045 21.2974C6.83216 21.3557 6.69733 21.4126 6.57134 21.4693C6.16196 21.6538 5.80401 21.8525 5.53116 22.136C5.53116 22.136 5.38814 22.4712 5.18657 22.4941C4.94623 22.5213 4.70625 22.4159 4.47386 22.1212C4.23073 21.8128 4.15625 21.4942 4.20969 21.2048Z" fill="url(#paint18_linear_3003_12451)"/>
<path d="M3.22908 17.3222C2.96321 17.5866 2.96493 17.9649 3.05346 18.2298C3.14198 18.4947 3.36824 18.7986 3.7402 18.8517C3.94496 18.8809 4.14374 18.8012 4.24227 18.7567C4.3016 18.7298 4.35238 18.7024 4.38825 18.6817C4.3947 18.678 4.40074 18.6745 4.40633 18.6712C4.72338 18.5713 5.08341 18.5195 5.50416 18.4814C6.1432 18.4234 6.81156 18.4552 7.42941 18.2779C7.63358 18.2193 7.74548 18.0489 7.79843 17.9465C7.8606 17.8263 7.90002 17.6871 7.91703 17.5545C7.93366 17.4247 7.9329 17.2696 7.88598 17.1254C7.83796 16.9778 7.71927 16.7895 7.47809 16.7352C7.45782 16.7307 7.43773 16.7261 7.41778 16.7215C7.30903 16.6965 7.2047 16.6726 7.09996 16.6623C6.9634 16.6489 6.83277 16.6577 6.66056 16.6834C6.22768 16.7478 5.78628 16.7613 5.35044 16.8008C4.89053 16.8425 4.37663 16.908 3.87342 17.0692C3.8663 17.07 3.85854 17.0708 3.85024 17.0718C3.8091 17.0767 3.75192 17.085 3.68827 17.0989C3.58255 17.1219 3.37543 17.1767 3.22908 17.3222Z" fill="url(#paint19_linear_3003_12451)"/>
<path d="M8.82258 26.2224C8.82237 26.5965 9.09225 26.8627 9.34301 26.9877C9.59377 27.1127 9.96961 27.1683 10.2704 26.9441C10.4359 26.8206 10.5199 26.6243 10.5579 26.5234C10.5808 26.4627 10.5972 26.4075 10.6079 26.3677C10.6098 26.3605 10.6116 26.3538 10.6132 26.3475C10.9901 25.6248 11.6275 25.0472 12.1224 24.4052C12.1278 24.4006 12.1336 24.3957 12.1398 24.3903C12.1709 24.3631 12.2134 24.3241 12.258 24.2768C12.3322 24.1983 12.472 24.0366 12.5101 23.8342C12.5794 23.4666 12.3633 23.1554 12.1399 22.9867C11.9165 22.8179 11.5573 22.6945 11.2203 22.8599C10.9473 22.9939 10.8006 23.3493 10.6077 23.5841C10.3926 23.8459 10.1697 24.1006 9.95229 24.3604C9.65671 24.7136 9.3398 25.1216 9.0985 25.5899C9.09399 25.5954 9.08912 25.6015 9.08394 25.608C9.05832 25.6404 9.02379 25.6866 8.98864 25.7412C8.93027 25.8319 8.8227 26.0164 8.82258 26.2224Z" fill="url(#paint20_linear_3003_12451)"/>
<path d="M6.10926 24.1634C6.0229 24.5275 6.22427 24.8483 6.43956 25.0272C6.65485 25.2061 7.00787 25.346 7.35226 25.1963C7.54184 25.114 7.66877 24.9421 7.72899 24.8526C7.76525 24.7986 7.79393 24.7487 7.81354 24.7124C7.81706 24.7058 7.82033 24.6997 7.82334 24.6939C8.04017 24.4429 8.31895 24.2103 8.65659 23.9575C8.76402 23.877 8.87922 23.7933 9.0001 23.7056L9.00455 23.7023C9.30433 23.4846 9.59313 23.257 9.90126 23.0539C9.99149 22.9944 10.1648 22.8689 10.2486 22.6806C10.4007 22.3385 10.262 21.9864 10.0834 21.7711C9.90482 21.5559 9.58366 21.3537 9.2175 21.4378C9.01594 21.4841 8.85943 21.6298 8.7837 21.7068C8.44308 22.053 8.02563 22.3184 7.63771 22.6089C7.26864 22.8852 6.86621 23.2101 6.52349 23.6108C6.51783 23.6151 6.51169 23.6199 6.50514 23.6251C6.47274 23.6508 6.42851 23.6878 6.38171 23.733C6.30401 23.808 6.15681 23.963 6.10926 24.1634Z" fill="url(#paint21_linear_3003_12451)"/>
<defs>
<linearGradient id="paint0_linear_3003_12451" x1="5.04708" y1="4.90343" x2="32.7747" y2="12.7475" gradientUnits="userSpaceOnUse">
<stop stop-color="#FEE5D1"/>
<stop offset="0.273763" stop-color="#D071E5" stop-opacity="0.89"/>
<stop offset="0.572367" stop-color="#EF83B4" stop-opacity="0.82"/>
<stop offset="0.8125" stop-color="#2BB7B3" stop-opacity="0.7"/>
<stop offset="1" stop-color="#077BBA" stop-opacity="0.82"/>
</linearGradient>
<linearGradient id="paint1_linear_3003_12451" x1="5.04708" y1="4.90343" x2="32.7747" y2="12.7475" gradientUnits="userSpaceOnUse">
<stop stop-color="#FEE5D1"/>
<stop offset="0.273763" stop-color="#D071E5" stop-opacity="0.89"/>
<stop offset="0.572367" stop-color="#EF83B4" stop-opacity="0.82"/>
<stop offset="0.8125" stop-color="#2BB7B3" stop-opacity="0.7"/>
<stop offset="1" stop-color="#077BBA" stop-opacity="0.82"/>
</linearGradient>
<linearGradient id="paint2_linear_3003_12451" x1="5.04708" y1="4.90343" x2="32.7747" y2="12.7475" gradientUnits="userSpaceOnUse">
<stop stop-color="#FEE5D1"/>
<stop offset="0.273763" stop-color="#D071E5" stop-opacity="0.89"/>
<stop offset="0.572367" stop-color="#EF83B4" stop-opacity="0.82"/>
<stop offset="0.8125" stop-color="#2BB7B3" stop-opacity="0.7"/>
<stop offset="1" stop-color="#077BBA" stop-opacity="0.82"/>
</linearGradient>
<linearGradient id="paint3_linear_3003_12451" x1="5.04708" y1="4.90343" x2="32.7747" y2="12.7475" gradientUnits="userSpaceOnUse">
<stop stop-color="#FEE5D1"/>
<stop offset="0.273763" stop-color="#D071E5" stop-opacity="0.89"/>
<stop offset="0.572367" stop-color="#EF83B4" stop-opacity="0.82"/>
<stop offset="0.8125" stop-color="#2BB7B3" stop-opacity="0.7"/>
<stop offset="1" stop-color="#077BBA" stop-opacity="0.82"/>
</linearGradient>
<linearGradient id="paint4_linear_3003_12451" x1="5.04708" y1="4.90343" x2="32.7747" y2="12.7475" gradientUnits="userSpaceOnUse">
<stop stop-color="#FEE5D1"/>
<stop offset="0.273763" stop-color="#D071E5" stop-opacity="0.89"/>
<stop offset="0.572367" stop-color="#EF83B4" stop-opacity="0.82"/>
<stop offset="0.8125" stop-color="#2BB7B3" stop-opacity="0.7"/>
<stop offset="1" stop-color="#077BBA" stop-opacity="0.82"/>
</linearGradient>
<linearGradient id="paint5_linear_3003_12451" x1="5.04708" y1="4.90343" x2="32.7747" y2="12.7475" gradientUnits="userSpaceOnUse">
<stop stop-color="#FEE5D1"/>
<stop offset="0.273763" stop-color="#D071E5" stop-opacity="0.89"/>
<stop offset="0.572367" stop-color="#EF83B4" stop-opacity="0.82"/>
<stop offset="0.8125" stop-color="#2BB7B3" stop-opacity="0.7"/>
<stop offset="1" stop-color="#077BBA" stop-opacity="0.82"/>
</linearGradient>
<linearGradient id="paint6_linear_3003_12451" x1="5.04708" y1="4.90343" x2="32.7747" y2="12.7475" gradientUnits="userSpaceOnUse">
<stop stop-color="#FEE5D1"/>
<stop offset="0.273763" stop-color="#D071E5" stop-opacity="0.89"/>
<stop offset="0.572367" stop-color="#EF83B4" stop-opacity="0.82"/>
<stop offset="0.8125" stop-color="#2BB7B3" stop-opacity="0.7"/>
<stop offset="1" stop-color="#077BBA" stop-opacity="0.82"/>
</linearGradient>
<linearGradient id="paint7_linear_3003_12451" x1="5.04708" y1="4.90343" x2="32.7747" y2="12.7475" gradientUnits="userSpaceOnUse">
<stop stop-color="#FEE5D1"/>
<stop offset="0.273763" stop-color="#D071E5" stop-opacity="0.89"/>
<stop offset="0.572367" stop-color="#EF83B4" stop-opacity="0.82"/>
<stop offset="0.8125" stop-color="#2BB7B3" stop-opacity="0.7"/>
<stop offset="1" stop-color="#077BBA" stop-opacity="0.82"/>
</linearGradient>
<linearGradient id="paint8_linear_3003_12451" x1="5.04708" y1="4.90343" x2="32.7747" y2="12.7475" gradientUnits="userSpaceOnUse">
<stop stop-color="#FEE5D1"/>
<stop offset="0.273763" stop-color="#D071E5" stop-opacity="0.89"/>
<stop offset="0.572367" stop-color="#EF83B4" stop-opacity="0.82"/>
<stop offset="0.8125" stop-color="#2BB7B3" stop-opacity="0.7"/>
<stop offset="1" stop-color="#077BBA" stop-opacity="0.82"/>
</linearGradient>
<linearGradient id="paint9_linear_3003_12451" x1="5.04708" y1="4.90343" x2="32.7747" y2="12.7475" gradientUnits="userSpaceOnUse">
<stop stop-color="#FEE5D1"/>
<stop offset="0.273763" stop-color="#D071E5" stop-opacity="0.89"/>
<stop offset="0.572367" stop-color="#EF83B4" stop-opacity="0.82"/>
<stop offset="0.8125" stop-color="#2BB7B3" stop-opacity="0.7"/>
<stop offset="1" stop-color="#077BBA" stop-opacity="0.82"/>
</linearGradient>
<linearGradient id="paint10_linear_3003_12451" x1="5.04708" y1="4.90343" x2="32.7747" y2="12.7475" gradientUnits="userSpaceOnUse">
<stop stop-color="#FEE5D1"/>
<stop offset="0.273763" stop-color="#D071E5" stop-opacity="0.89"/>
<stop offset="0.572367" stop-color="#EF83B4" stop-opacity="0.82"/>
<stop offset="0.8125" stop-color="#2BB7B3" stop-opacity="0.7"/>
<stop offset="1" stop-color="#077BBA" stop-opacity="0.82"/>
</linearGradient>
<linearGradient id="paint11_linear_3003_12451" x1="5.04708" y1="4.90343" x2="32.7747" y2="12.7475" gradientUnits="userSpaceOnUse">
<stop stop-color="#FEE5D1"/>
<stop offset="0.273763" stop-color="#D071E5" stop-opacity="0.89"/>
<stop offset="0.572367" stop-color="#EF83B4" stop-opacity="0.82"/>
<stop offset="0.8125" stop-color="#2BB7B3" stop-opacity="0.7"/>
<stop offset="1" stop-color="#077BBA" stop-opacity="0.82"/>
</linearGradient>
<linearGradient id="paint12_linear_3003_12451" x1="5.04708" y1="4.90343" x2="32.7747" y2="12.7475" gradientUnits="userSpaceOnUse">
<stop stop-color="#FEE5D1"/>
<stop offset="0.273763" stop-color="#D071E5" stop-opacity="0.89"/>
<stop offset="0.572367" stop-color="#EF83B4" stop-opacity="0.82"/>
<stop offset="0.8125" stop-color="#2BB7B3" stop-opacity="0.7"/>
<stop offset="1" stop-color="#077BBA" stop-opacity="0.82"/>
</linearGradient>
<linearGradient id="paint13_linear_3003_12451" x1="5.04708" y1="4.90343" x2="32.7747" y2="12.7475" gradientUnits="userSpaceOnUse">
<stop stop-color="#FEE5D1"/>
<stop offset="0.273763" stop-color="#D071E5" stop-opacity="0.89"/>
<stop offset="0.572367" stop-color="#EF83B4" stop-opacity="0.82"/>
<stop offset="0.8125" stop-color="#2BB7B3" stop-opacity="0.7"/>
<stop offset="1" stop-color="#077BBA" stop-opacity="0.82"/>
</linearGradient>
<linearGradient id="paint14_linear_3003_12451" x1="5.04708" y1="4.90343" x2="32.7747" y2="12.7475" gradientUnits="userSpaceOnUse">
<stop stop-color="#FEE5D1"/>
<stop offset="0.273763" stop-color="#D071E5" stop-opacity="0.89"/>
<stop offset="0.572367" stop-color="#EF83B4" stop-opacity="0.82"/>
<stop offset="0.8125" stop-color="#2BB7B3" stop-opacity="0.7"/>
<stop offset="1" stop-color="#077BBA" stop-opacity="0.82"/>
</linearGradient>
<linearGradient id="paint15_linear_3003_12451" x1="5.04708" y1="4.90343" x2="32.7747" y2="12.7475" gradientUnits="userSpaceOnUse">
<stop stop-color="#FEE5D1"/>
<stop offset="0.273763" stop-color="#D071E5" stop-opacity="0.89"/>
<stop offset="0.572367" stop-color="#EF83B4" stop-opacity="0.82"/>
<stop offset="0.8125" stop-color="#2BB7B3" stop-opacity="0.7"/>
<stop offset="1" stop-color="#077BBA" stop-opacity="0.82"/>
</linearGradient>
<linearGradient id="paint16_linear_3003_12451" x1="5.04708" y1="4.90343" x2="32.7747" y2="12.7475" gradientUnits="userSpaceOnUse">
<stop stop-color="#FEE5D1"/>
<stop offset="0.273763" stop-color="#D071E5" stop-opacity="0.89"/>
<stop offset="0.572367" stop-color="#EF83B4" stop-opacity="0.82"/>
<stop offset="0.8125" stop-color="#2BB7B3" stop-opacity="0.7"/>
<stop offset="1" stop-color="#077BBA" stop-opacity="0.82"/>
</linearGradient>
<linearGradient id="paint17_linear_3003_12451" x1="5.04708" y1="4.90343" x2="32.7747" y2="12.7475" gradientUnits="userSpaceOnUse">
<stop stop-color="#FEE5D1"/>
<stop offset="0.273763" stop-color="#D071E5" stop-opacity="0.89"/>
<stop offset="0.572367" stop-color="#EF83B4" stop-opacity="0.82"/>
<stop offset="0.8125" stop-color="#2BB7B3" stop-opacity="0.7"/>
<stop offset="1" stop-color="#077BBA" stop-opacity="0.82"/>
</linearGradient>
<linearGradient id="paint18_linear_3003_12451" x1="5.04708" y1="4.90343" x2="32.7747" y2="12.7475" gradientUnits="userSpaceOnUse">
<stop stop-color="#FEE5D1"/>
<stop offset="0.273763" stop-color="#D071E5" stop-opacity="0.89"/>
<stop offset="0.572367" stop-color="#EF83B4" stop-opacity="0.82"/>
<stop offset="0.8125" stop-color="#2BB7B3" stop-opacity="0.7"/>
<stop offset="1" stop-color="#077BBA" stop-opacity="0.82"/>
</linearGradient>
<linearGradient id="paint19_linear_3003_12451" x1="5.04708" y1="4.90343" x2="32.7747" y2="12.7475" gradientUnits="userSpaceOnUse">
<stop stop-color="#FEE5D1"/>
<stop offset="0.273763" stop-color="#D071E5" stop-opacity="0.89"/>
<stop offset="0.572367" stop-color="#EF83B4" stop-opacity="0.82"/>
<stop offset="0.8125" stop-color="#2BB7B3" stop-opacity="0.7"/>
<stop offset="1" stop-color="#077BBA" stop-opacity="0.82"/>
</linearGradient>
<linearGradient id="paint20_linear_3003_12451" x1="5.04708" y1="4.90343" x2="32.7747" y2="12.7475" gradientUnits="userSpaceOnUse">
<stop stop-color="#FEE5D1"/>
<stop offset="0.273763" stop-color="#D071E5" stop-opacity="0.89"/>
<stop offset="0.572367" stop-color="#EF83B4" stop-opacity="0.82"/>
<stop offset="0.8125" stop-color="#2BB7B3" stop-opacity="0.7"/>
<stop offset="1" stop-color="#077BBA" stop-opacity="0.82"/>
</linearGradient>
<linearGradient id="paint21_linear_3003_12451" x1="5.04708" y1="4.90343" x2="32.7747" y2="12.7475" gradientUnits="userSpaceOnUse">
<stop stop-color="#FEE5D1"/>
<stop offset="0.273763" stop-color="#D071E5" stop-opacity="0.89"/>
<stop offset="0.572367" stop-color="#EF83B4" stop-opacity="0.82"/>
<stop offset="0.8125" stop-color="#2BB7B3" stop-opacity="0.7"/>
<stop offset="1" stop-color="#077BBA" stop-opacity="0.82"/>
</linearGradient>
</defs>
</svg>
