<svg xmlns="http://www.w3.org/2000/svg" width="20.199" height="18" viewBox="0 0 20.199 18">
  <g id="icon-2" transform="translate(-0.186)">
    <path id="Path_5756" data-name="Path 5756" d="M14.525,10.906h-8.8L8.27,3.417h.014l.369,1.135h3.672C11.55,2.312,10.985.686,10.985.686a1.345,1.345,0,0,0-.2-.418.724.724,0,0,0-.39-.23c-.181-.051-3.722-.051-3.884,0a.69.69,0,0,0-.355.223,1.4,1.4,0,0,0-.195.383S.223,17.212.2,17.407a.543.543,0,0,0,.1.452,19.4,19.4,0,0,0,3.042.111.633.633,0,0,0,.292-.237c.06-.088,1.287-3.877,1.287-3.877h6.767s1.295,3.866,1.35,3.94a.565.565,0,0,0,.293.188,26.344,26.344,0,0,0,3.328-.1.472.472,0,0,0,.111-.435C16.751,17.363,15.716,14.355,14.525,10.906Z" fill="#6d6d6d"/>
    <path id="Path_5757" data-name="Path 5757" d="M20.385,6.141H9.264V9.091H20.385Z" fill="#6d6d6d"/>
  </g>
</svg>
