<svg width="22" height="22" viewBox="0 0 22 22" fill="none" xmlns="http://www.w3.org/2000/svg">
<path d="M13.9211 21.0555C15.5376 20.5864 16.9923 19.739 18.1825 18.6154L18.7349 18.0939L18.0375 17.7927C17.2531 17.4541 16.3935 17.1716 15.4787 16.9539L15.0378 16.8489L14.8902 17.2774C14.7503 17.6833 14.5975 18.0652 14.4333 18.4199L14.4331 18.4203C14.1134 19.1128 13.7517 19.7018 13.3613 20.1733L13.3185 20.185C13.7306 19.6922 14.0948 19.0841 14.4069 18.4081L14.4069 18.4079C14.5538 18.0894 14.6909 17.7519 14.8169 17.3975L15.0152 16.84L14.4325 16.7375C13.5069 16.5747 12.5332 16.4766 11.5263 16.4511L11.0136 16.4381V16.9509V20.8939V21.5C11.0091 21.5 11.0045 21.5 11 21.5C10.9943 21.5 10.9887 21.5 10.983 21.5V20.8939V16.9509V16.4381L10.4703 16.4511C9.46347 16.4766 8.48972 16.5747 7.56418 16.7375L6.98139 16.84L7.17971 17.3975C7.30576 17.7519 7.44282 18.0894 7.58971 18.4079L7.58981 18.4081C8.27252 19.8867 9.2049 21.0401 10.3423 21.3737L10.7639 21.4974C10.4144 21.4897 10.0692 21.4649 9.72898 21.4239L8.73196 20.2855C8.30439 19.7973 7.90952 19.1697 7.56441 18.4201L7.56431 18.4199C7.40057 18.0647 7.24754 17.6824 7.10687 17.276L6.61499 17.3588L6.51866 16.9538C5.60306 17.1716 4.74418 17.4541 3.95983 17.7927L3.26238 18.0939L3.81479 18.6154C5.04111 19.773 6.54814 20.6375 8.22356 21.0971L8.99706 21.3092C6.90072 20.9045 5.0269 19.8762 3.57537 18.4246C1.67486 16.5234 0.5 13.8998 0.5 11C0.5 8.10083 1.6749 5.47586 3.57531 3.57543C3.57533 3.57541 3.57535 3.57539 3.57537 3.57537L13.9211 21.0555ZM13.9211 21.0555L13.8829 21.0993C15.6231 20.6034 17.1791 19.6697 18.4246 18.4246C20.3251 16.5242 21.5 13.8999 21.5 11C21.5 8.10087 20.3251 5.47654 18.4246 3.57537C16.9701 2.12085 15.0912 1.09132 12.9897 0.688257L13.7745 0.90361C15.4491 1.36317 16.9568 2.2276 18.1832 3.38532L18.7356 3.90681L18.0381 4.20794C17.2538 4.54659 16.3949 4.82904 15.4793 5.04684L15.0391 5.15156L14.8911 4.72397C14.7504 4.31759 14.5974 3.93529 14.4337 3.58009L14.4336 3.58003C14.0885 2.83104 13.6936 2.20343 13.266 1.71521L12.2681 0.575793C11.9273 0.534768 11.5815 0.510069 11.2314 0.5025L11.6557 0.626957C12.7931 0.960601 13.7255 2.114 14.4082 3.59254L14.4083 3.59274C14.5552 3.91125 14.6922 4.24879 14.8183 4.60313L15.0166 5.16064L14.4338 5.26315C13.5083 5.42595 12.5345 5.52404 11.5276 5.54959L11.0149 5.5626V5.04975V1.10674V0.50001L13.9211 21.0555ZM13.1415 20.6156V21.2814C12.5229 21.4096 11.8845 21.4834 11.2313 21.4975L11.654 21.3738C12.1985 21.2145 12.6959 20.8672 13.1415 20.3862V20.6149V20.6156ZM18.3788 17.9153L18.7235 18.0754L18.97 17.7861C20.4173 16.0876 21.3322 13.9189 21.4533 11.541L21.48 11.0156H20.9539H16.347H15.8578L15.8471 11.5047C15.8088 13.2596 15.5699 14.9006 15.1831 16.3229L15.0482 16.8189L15.5477 16.9401C16.5741 17.1891 17.5261 17.5191 18.3788 17.9153ZM3.02726 17.7868L3.27379 18.0761L3.61851 17.916C4.47136 17.5197 5.42332 17.1891 6.44935 16.9408L6.94939 16.8198L6.81416 16.3234C6.42673 14.9013 6.18847 13.261 6.15019 11.5054L6.13952 11.0163H5.65031H1.04338H0.517281L0.544029 11.5417C0.665082 13.9196 1.58003 16.0883 3.02726 17.7868ZM6.85816 16.3738L6.98015 16.8149L7.43027 16.7323C8.40372 16.5538 9.43185 16.4458 10.4961 16.4195L10.9837 16.4075V15.9197V11.5163V11.0163H10.4837H6.68156H6.1701L6.18168 11.5276C6.22162 13.2909 6.46192 14.9411 6.85816 16.3738ZM11.0149 15.9197V16.4078L11.5029 16.4195C12.5669 16.4452 13.5948 16.5531 14.5681 16.7322L15.0186 16.8152L15.1405 16.3736C15.536 14.9411 15.777 13.291 15.817 11.5276L15.8285 11.0163H15.3171H11.5149H11.0149V11.5163V15.9197ZM15.5487 5.05985L15.0486 5.18081L15.1838 5.67726C15.5712 7.09936 15.8095 8.73963 15.8478 10.4953L15.8585 10.9844H16.3477H20.9546H21.4807L21.4539 10.459C21.3329 8.08106 20.4179 5.91236 18.9707 4.21389L18.7242 3.92457L18.3795 4.08472C17.5266 4.48096 16.5753 4.81155 15.5487 5.05985ZM5.65031 10.9844H6.13952L6.15019 10.4953C6.18846 8.74044 6.42737 7.09941 6.81421 5.67705L6.94911 5.18106L6.44957 5.05992C5.42257 4.81087 4.47123 4.48088 3.61851 4.08472L3.27388 3.92461L3.02734 4.2138C1.5793 5.91239 0.665078 8.08116 0.544029 10.459L0.517281 10.9844H1.04338H5.65031ZM7.43127 5.26843L6.9807 5.18549L6.85878 5.62711C6.46331 7.05956 6.22229 8.70965 6.18236 10.4731L6.17078 10.9844H6.68223H10.4844H10.9844V10.4844V6.08101V5.59292L10.4964 5.58115C9.43241 5.55549 8.40449 5.44759 7.43127 5.26843ZM15.3171 10.9844H15.8286L15.817 10.473C15.777 8.71049 15.5367 7.05963 15.1405 5.62689L15.0185 5.18582L14.5684 5.26837C13.5949 5.44692 12.5668 5.55483 11.5026 5.58116L11.0149 5.59322V6.08101V10.4844V10.9844H11.5149H15.3171Z" stroke="#3D3D3D"/>
</svg>
