<svg width="93" height="31" viewBox="0 0 93 31" fill="none" xmlns="http://www.w3.org/2000/svg">
<path d="M26.1687 27.448C28.3874 27.448 30.1794 27.0107 31.5447 26.136L31.7687 26.392C29.9341 28.9307 27.6514 30.3387 24.9207 30.616C24.3447 30.68 23.8434 30.712 23.4167 30.712C23.0114 30.712 22.5314 30.6907 21.9767 30.648C21.4434 30.6267 20.6861 30.488 19.7047 30.232C18.7234 29.976 17.8594 29.7093 17.1127 29.432C16.3661 29.176 15.5021 28.824 14.5207 28.376C13.5394 27.9493 12.7287 27.5653 12.0887 27.224C11.4487 26.904 10.6807 26.5093 9.78474 26.04C8.91008 25.592 8.14208 25.208 7.48074 24.888C6.81941 24.568 6.17941 24.2907 5.56074 24.056C3.81141 23.352 2.01941 23 0.184744 23V22.68H0.600744C1.15541 22.68 1.62474 22.488 2.00874 22.104C2.41408 21.72 2.62741 21.24 2.64874 20.664V2.936C2.62741 2.36 2.41408 1.88 2.00874 1.496C1.62474 1.112 1.15541 0.919998 0.600744 0.919998H0.184744V0.599998H9.91274L9.88074 0.919998H9.56074C8.75008 0.919998 8.14208 1.25067 7.73674 1.912C7.54474 2.21067 7.44874 2.552 7.44874 2.936V21.496C7.44874 22.2 7.58741 22.6907 7.86474 22.968C8.14208 23.224 8.45141 23.4053 8.79274 23.512C16.8141 26.136 22.6061 27.448 26.1687 27.448ZM25.4095 0.151999C29.3562 0.151999 32.4922 1.19733 34.8175 3.288C37.1428 5.37867 38.3055 8.216 38.3055 11.8C38.3055 15.384 37.1428 18.2213 34.8175 20.312C32.4922 22.4027 29.3562 23.448 25.4095 23.448C21.4628 23.448 18.3268 22.4027 16.0015 20.312C13.6762 18.2213 12.5135 15.384 12.5135 11.8C12.5135 9.432 13.0362 7.37333 14.0815 5.624C15.1482 3.85333 16.6522 2.49867 18.5935 1.56C20.5348 0.621332 22.8068 0.151999 25.4095 0.151999ZM19.8095 19.352C21.1962 21.1867 23.0628 22.104 25.4095 22.104C27.7562 22.104 29.6122 21.1867 30.9775 19.352C32.3642 17.496 33.0575 14.9787 33.0575 11.8C33.0575 9.70933 32.7482 7.88533 32.1295 6.328C31.5108 4.77067 30.6255 3.576 29.4735 2.744C28.3215 1.912 26.9668 1.496 25.4095 1.496C23.0628 1.496 21.1962 2.424 19.8095 4.28C18.4442 6.11467 17.7615 8.62133 17.7615 11.8C17.7615 14.9787 18.4442 17.496 19.8095 19.352ZM65.495 12.6H65.015C64.503 12.6 64.1083 12.728 63.831 12.984C63.5537 13.2187 63.415 13.5707 63.415 14.04V19.32C62.583 20.408 61.207 21.368 59.287 22.2C57.367 23.032 55.2123 23.448 52.823 23.448C49.175 23.448 46.2417 22.4027 44.023 20.312C41.8257 18.2 40.727 15.3627 40.727 11.8C40.727 8.216 41.8257 5.37867 44.023 3.288C46.2417 1.19733 49.239 0.151999 53.015 0.151999C54.7217 0.151999 56.375 0.322666 57.975 0.664C59.575 0.983999 60.8657 1.38933 61.847 1.88L61.911 7.384H61.623C61.0683 5.31467 60.119 3.82133 58.775 2.904C57.431 1.96533 55.831 1.496 53.975 1.496C51.3937 1.496 49.4097 2.424 48.023 4.28C46.6363 6.11467 45.943 8.64267 45.943 11.864C45.943 15.064 46.5723 17.5707 47.831 19.384C49.111 21.1973 50.9137 22.104 53.239 22.104C54.9243 22.104 56.3323 21.624 57.463 20.664C58.0177 20.1733 58.423 19.5973 58.679 18.936V14.04C58.679 13.5707 58.5297 13.2187 58.231 12.984C57.9537 12.728 57.5483 12.6 57.015 12.6H56.503V12.28H65.495V12.6ZM79.637 0.151999C83.5837 0.151999 86.7197 1.19733 89.045 3.288C91.3703 5.37867 92.533 8.216 92.533 11.8C92.533 15.384 91.3703 18.2213 89.045 20.312C86.7197 22.4027 83.5837 23.448 79.637 23.448C75.6903 23.448 72.5543 22.4027 70.229 20.312C67.9037 18.2213 66.741 15.384 66.741 11.8C66.741 9.432 67.2637 7.37333 68.309 5.624C69.3757 3.85333 70.8797 2.49867 72.821 1.56C74.7623 0.621332 77.0343 0.151999 79.637 0.151999ZM74.037 19.352C75.4237 21.1867 77.2903 22.104 79.637 22.104C81.9837 22.104 83.8397 21.1867 85.205 19.352C86.5917 17.496 87.285 14.9787 87.285 11.8C87.285 9.70933 86.9757 7.88533 86.357 6.328C85.7383 4.77067 84.853 3.576 83.701 2.744C82.549 1.912 81.1943 1.496 79.637 1.496C77.2903 1.496 75.4237 2.424 74.037 4.28C72.6717 6.11467 71.989 8.62133 71.989 11.8C71.989 14.9787 72.6717 17.496 74.037 19.352Z" fill="white"/>
</svg>
