<svg width="52" height="12" viewBox="0 0 52 12" fill="none" xmlns="http://www.w3.org/2000/svg">
<path d="M49.6448 8.48814C48.8519 8.49109 48.2115 9.11987 48.2144 9.89263C48.2144 9.89361 48.2144 9.8944 48.2144 9.89518C48.2099 10.6679 48.8491 11.2979 49.642 11.3022C49.6428 11.3022 49.6438 11.3022 49.6446 11.3022C50.4335 11.3022 51.075 10.6719 51.075 9.89518C51.0795 9.12242 50.4403 8.49246 49.6474 8.48814C49.6466 8.48814 49.6456 8.48814 49.6448 8.48814ZM44.9377 7.40148C44.9377 6.33702 44.0131 5.47527 42.8725 5.47527C41.7319 5.47527 40.8074 6.33839 40.8074 7.40148C40.8074 8.46457 41.7333 9.32651 42.8737 9.32651C44.0141 9.32651 44.9375 8.46477 44.9375 7.40148H44.9377ZM44.9457 3.65749H47.2241V11.1441H44.9457V10.6654C44.2814 11.1123 43.4933 11.3513 42.6861 11.3505C40.468 11.3505 38.6701 9.58246 38.6701 7.40128C38.6701 5.22011 40.4682 3.45202 42.6861 3.45202C43.5247 3.45202 44.3015 3.70444 44.9457 4.13718V3.65729V3.65749ZM26.7077 4.63297V3.65867H24.3743V11.1439H26.7132V7.6484C26.7132 6.46882 28.012 5.83592 28.9137 5.83592H28.9406V3.65867C28.0146 3.65867 27.1653 4.04839 26.7077 4.63297ZM20.895 7.40148C20.895 6.33702 19.9705 5.47527 18.8299 5.47527C17.6893 5.47527 16.7648 6.33839 16.7648 7.40148C16.7648 8.46457 17.6907 9.32651 18.8311 9.32651C19.9715 9.32651 20.8948 8.46477 20.8948 7.40148H20.895ZM20.9031 3.65749H23.1829V11.1441H20.9031V10.6654C20.2589 11.097 19.4821 11.3505 18.6435 11.3505C16.4253 11.3505 14.6275 9.58246 14.6275 7.40128C14.6275 5.22011 16.4255 3.45202 18.6435 3.45202C19.4821 3.45202 20.2589 3.70444 20.9031 4.13718V3.65729V3.65749ZM34.6206 3.45733C33.7108 3.45733 32.8493 3.73449 32.2725 4.50097V3.65887H30.0036V11.1441H32.3007V7.21055C32.3007 6.07282 33.0763 5.51436 34.0115 5.51436C35.0124 5.51436 35.5895 6.10287 35.5895 7.19483V11.1441H37.8653V6.38396C37.8653 4.64201 36.4564 3.45733 34.6208 3.45733H34.6206ZM11.3078 11.1441H13.6936V0.322866H11.3078V11.1441ZM0.828327 11.1466H3.35503V0.320312H0.829536L0.828125 11.1468L0.828327 11.1466ZM9.66535 0.320312C9.66535 2.66374 8.73678 4.84492 7.081 6.46529L10.5724 11.1468H7.45267L3.65938 6.05985L4.63895 5.33797C6.25583 4.1527 7.20233 2.29209 7.19105 0.320312H9.66535Z" fill="#0A0B09"/>
</svg>
