<svg width="49" height="21" viewBox="0 0 49 21" fill="none" xmlns="http://www.w3.org/2000/svg">
<path fill-rule="evenodd" clip-rule="evenodd" d="M26.6428 2.94412L23.3164 3.69144V0.868243L26.6428 0.134766V2.94412ZM33.5602 4.50794C32.2615 4.50794 31.4266 5.14454 30.9628 5.5874L30.7905 4.72937H27.875V20.8659L31.1881 20.1324L31.2013 16.2159C31.6784 16.5758 32.3807 17.0878 33.5469 17.0878C35.9191 17.0878 38.0792 15.095 38.0792 10.7079C38.0659 6.69454 35.8793 4.50794 33.5602 4.50794ZM32.7651 14.0431C31.9832 14.0431 31.5194 13.7524 31.2013 13.3926L31.1881 8.25828C31.5327 7.85695 32.0097 7.58016 32.7651 7.58016C33.971 7.58016 34.8059 8.99176 34.8059 10.8047C34.8059 12.6591 33.9843 14.0431 32.7651 14.0431ZM48.522 10.8463C48.522 7.30346 46.8788 4.50794 43.738 4.50794C40.584 4.50794 38.6757 7.30346 38.6757 10.8186C38.6757 14.9842 40.9286 17.0878 44.1621 17.0878C45.7391 17.0878 46.9318 16.7141 47.8329 16.1882V13.4204C46.9318 13.8909 45.8981 14.1815 44.5862 14.1815C43.3007 14.1815 42.161 13.711 42.0152 12.078H48.4955C48.4955 12.0017 48.5003 11.8284 48.5058 11.6288C48.5132 11.3575 48.522 11.0376 48.522 10.8463ZM41.9754 9.53149C41.9754 7.96767 42.8898 7.31723 43.7246 7.31723C44.533 7.31723 45.3944 7.96767 45.3944 9.53149H41.9754ZM23.3163 4.7432H26.6426V16.8525H23.3163V4.7432ZM19.5397 4.74323L19.7518 5.76733C20.5336 4.2727 22.0842 4.57716 22.5082 4.74323V7.92625C22.0974 7.77402 20.7722 7.58027 19.9903 8.64589V16.8525H16.6773V4.74323H19.5397ZM13.1255 1.74009L9.89195 2.45973L9.8787 13.5449C9.8787 15.5931 11.3497 17.1016 13.311 17.1016C14.3977 17.1016 15.1928 16.894 15.6301 16.6449V13.8356C15.2061 14.0155 13.1122 14.6521 13.1122 12.6039V7.69096H15.6301V4.7432H13.1122L13.1255 1.74009ZM5.29369 7.51105C4.59132 7.51105 4.16725 7.71864 4.16725 8.25837C4.16725 8.84767 4.89708 9.10689 5.80252 9.42849C7.27859 9.95278 9.22137 10.6428 9.22958 13.199C9.22958 15.6762 7.33452 17.1016 4.57807 17.1016C3.43838 17.1016 2.19268 16.8664 0.960227 16.3128V13.0191C2.07341 13.6557 3.47814 14.1262 4.57807 14.1262C5.32019 14.1262 5.85028 13.9186 5.85028 13.282C5.85028 12.6292 5.05913 12.3309 4.104 11.9707C2.64939 11.4221 0.814453 10.7301 0.814453 8.42444C0.814453 5.9749 2.6035 4.50794 5.29369 4.50794C6.39362 4.50794 7.4803 4.68785 8.58023 5.14454V8.39676C7.57306 7.82935 6.30085 7.51105 5.29369 7.51105Z" fill="#6461FC"/>
</svg>
