<svg width="38" height="13" viewBox="0 0 38 13" fill="none" xmlns="http://www.w3.org/2000/svg">
<path d="M29.7724 1.76931L32.8876 1.22549V12.8805H29.7724V1.76931ZM34.3206 1.76931V12.8805H37.4375V1.22549L34.3206 1.76931ZM25.3348 12.8805H28.4517V4.35644H25.3348V12.8805ZM4.74 5.56152C4.34544 5.53578 3.43415 5.47946 3.43415 4.67822C3.43415 3.71287 4.7466 3.71287 5.24022 3.71287C6.10693 3.71287 7.22788 3.96226 8.02856 4.19555C8.02856 4.19555 8.47595 4.3484 8.85566 4.50607L8.89033 4.51572V1.87228L8.84245 1.8578C7.89814 1.53601 6.79865 1.22549 4.76146 1.22549C1.24672 1.22549 0.00195312 3.22055 0.00195312 4.92921C0.00195312 5.91387 0.434485 8.23232 4.4577 8.4994C4.79943 8.52031 5.70411 8.57019 5.70411 9.39717C5.70411 10.0793 4.96287 10.4832 3.71645 10.4832C2.35116 10.4832 1.0255 10.1437 0.21987 9.82192V12.5458C1.42502 12.8531 2.78205 13.0076 4.37515 13.0076C7.81065 13.0076 9.34927 11.1203 9.34927 9.25076C9.34927 7.13021 7.6274 5.75298 4.74 5.56313V5.56152ZM23.5799 4.23095C20.6991 4.32104 19.2381 5.58082 19.2381 8.0843V12.8805H22.3814V8.9692C22.3814 7.46969 22.5828 6.82773 24.4087 6.76659V4.27599C24.1016 4.21164 23.5816 4.23255 23.5816 4.23255L23.5799 4.23095ZM15.1257 4.34679C15.0564 4.51733 14.5578 5.88974 13.351 7.31363V1.22549L10.1351 1.84492V12.8805H13.351V9.46957C14.2821 10.8307 14.7427 12.8805 14.7427 12.8805H18.5942C18.2129 11.3375 16.5471 8.48974 16.5471 8.48974C18.0428 6.6411 18.6999 4.67179 18.8039 4.34518H15.1257V4.34679ZM26.8949 3.53911C27.7434 3.53911 28.4319 2.8698 28.4319 2.04282C28.4319 1.21584 27.7434 0.544922 26.8949 0.544922C26.0463 0.544922 25.3596 1.21584 25.3596 2.04282C25.3596 2.8698 26.048 3.53911 26.8949 3.53911Z" fill="#862165"/>
</svg>
