<svg width="59" height="14" viewBox="0 0 59 14" fill="none" xmlns="http://www.w3.org/2000/svg">
<path fill-rule="evenodd" clip-rule="evenodd" d="M28.3402 4.40696C28.8812 3.7536 29.7227 3.21289 30.7213 3.21289C32.973 3.21289 34.7437 5.02877 34.7437 7.26821C34.7437 9.60227 32.9637 11.328 30.8277 11.328C29.6903 11.328 28.8211 10.7603 28.5021 10.2872H28.4697V13.7162C28.4697 13.7162 28.4605 13.7567 28.4466 13.7702C28.4327 13.7838 28.4096 13.7928 28.3911 13.7928H26.3891C26.3891 13.7928 26.3475 13.7838 26.3337 13.7702C26.3198 13.7567 26.3105 13.7342 26.3105 13.7162V3.294C26.3105 3.294 26.3198 3.25344 26.3337 3.23993C26.3475 3.22641 26.3707 3.2174 26.3891 3.2174H28.2616C28.2616 3.2174 28.3033 3.22641 28.3171 3.23993C28.331 3.25344 28.3402 3.27597 28.3402 3.294V4.41146V4.40696ZM30.5503 9.34093C30.3838 9.34544 30.2174 9.33192 30.0509 9.30038C29.6394 9.21477 29.2603 9.01651 28.9644 8.71912C28.6685 8.42623 28.4697 8.05224 28.3957 7.64671C28.3726 7.52955 28.3634 7.4124 28.3587 7.29525C28.3587 7.16458 28.368 7.0339 28.3911 6.90323C28.4651 6.4977 28.6639 6.12371 28.9598 5.83083C29.2557 5.53794 29.6302 5.33518 30.0463 5.24956C30.2127 5.21352 30.3792 5.2 30.5456 5.2045C30.8184 5.2045 31.0866 5.26308 31.3362 5.36672C31.5905 5.47035 31.8171 5.62355 32.0113 5.81731C32.2055 6.01106 32.3534 6.23636 32.4551 6.48418C32.5568 6.73201 32.6077 6.99786 32.6031 7.26821C32.6031 7.53857 32.5568 7.80442 32.4551 8.05224C32.3534 8.30007 32.2008 8.52987 32.0113 8.72362C31.8171 8.91738 31.5905 9.07058 31.3362 9.17421C31.0866 9.27785 30.8184 9.33642 30.5503 9.34093Z" fill="#5A31F4"/>
<path d="M15.3391 4.77582C14.8768 3.82958 13.9983 3.22128 12.676 3.22128C12.2692 3.23029 11.8715 3.32492 11.5109 3.50515C11.1503 3.68539 10.8359 3.94673 10.5955 4.26214L10.5492 4.32072V0.612356C10.5492 0.612356 10.54 0.571803 10.5261 0.55378C10.5122 0.540262 10.4891 0.53125 10.466 0.53125H8.59813C8.59813 0.53125 8.55652 0.540262 8.54265 0.55378C8.52878 0.567297 8.51953 0.589827 8.51953 0.612356V11.2463C8.51953 11.2463 8.52878 11.2869 8.54265 11.3004C8.55652 11.3139 8.57964 11.3229 8.59813 11.3229H10.6001C10.6001 11.3229 10.6417 11.3139 10.6602 11.3004C10.6741 11.2869 10.6833 11.2643 10.6833 11.2463V6.71336C10.6833 5.8302 11.2844 5.20839 12.2507 5.20839C13.3048 5.20839 13.573 6.0555 13.573 6.91613V11.2463C13.573 11.2463 13.5822 11.2869 13.5961 11.3004C13.61 11.3139 13.6331 11.3229 13.6516 11.3229H15.6489C15.6489 11.3229 15.6905 11.3139 15.709 11.3004C15.7229 11.2869 15.7321 11.2643 15.7321 11.2463V6.65478C15.7321 6.49708 15.7321 6.34388 15.709 6.19518C15.6766 5.70404 15.5472 5.2219 15.3391 4.77582Z" fill="#5A31F4"/>
<path d="M5.3483 6.35389C5.3483 6.35389 4.33114 6.11958 3.95664 6.02496C3.58214 5.93033 2.92561 5.73207 2.92561 5.24994C2.92561 4.76781 3.45268 4.61461 3.989 4.61461C4.52532 4.61461 5.12175 4.74077 5.16798 5.32204C5.16798 5.34457 5.18185 5.36259 5.19572 5.37611C5.20959 5.38962 5.23271 5.39864 5.25583 5.39864L7.23004 5.38962C7.23004 5.38962 7.25316 5.38962 7.26241 5.38061C7.27166 5.37611 7.2809 5.3716 7.29015 5.36259C7.2994 5.35358 7.30402 5.34457 7.30864 5.33555C7.30864 5.32654 7.31327 5.31302 7.30864 5.30401C7.18843 3.44758 5.51474 2.78521 3.97513 2.78521C2.14886 2.7762 0.812685 3.95224 0.812685 5.24994C0.812685 6.19618 1.08547 7.08385 3.24462 7.70116C3.62375 7.8093 4.13695 7.94898 4.58543 8.07064C5.12637 8.21934 5.41765 8.44013 5.41765 8.78708C5.41765 9.19261 4.8166 9.47649 4.2248 9.47649C3.36946 9.47649 2.75916 9.16558 2.7083 8.61135C2.7083 8.58882 2.69443 8.5708 2.68056 8.55728C2.66669 8.54376 2.64357 8.53475 2.62508 8.53475L0.655488 8.54376C0.655488 8.54376 0.632371 8.54376 0.623124 8.54827C0.613877 8.54827 0.60463 8.55728 0.595383 8.56629C0.586136 8.5753 0.581513 8.58432 0.576889 8.59333C0.576889 8.60234 0.572266 8.61586 0.572266 8.62487C0.664735 10.3777 2.39853 11.3194 4.01674 11.3194C6.42556 11.3194 7.5167 9.99917 7.5167 8.76005C7.5167 8.17878 7.38262 6.85405 5.35754 6.34938L5.3483 6.35389Z" fill="#5A31F4"/>
<path d="M20.3832 2.75781C18.5154 2.75781 17.586 3.37512 16.837 3.87077L16.8139 3.88429C16.7769 3.91133 16.7492 3.94737 16.74 3.99243C16.7307 4.03749 16.74 4.08255 16.7584 4.1231L17.4982 5.36223C17.5121 5.38476 17.5306 5.40729 17.5537 5.42081C17.5768 5.43432 17.6045 5.44784 17.6277 5.45235C17.6554 5.45685 17.6831 5.45235 17.7063 5.45235C17.734 5.44334 17.7571 5.43432 17.7756 5.4163L17.8357 5.37124C18.2195 5.05583 18.8344 4.63678 20.3278 4.52413C21.16 4.46105 21.8766 4.67282 22.4037 5.15045C22.9862 5.67314 23.333 6.51574 23.333 7.40791C23.333 9.04806 22.3436 10.0799 20.7485 10.0979C19.4354 10.0889 18.5524 9.42206 18.5524 8.43977C18.5524 7.91708 18.7928 7.57463 19.269 7.23669C19.306 7.20965 19.3291 7.17361 19.343 7.13305C19.3522 7.0925 19.343 7.04744 19.3245 7.00689L18.6633 5.78578C18.6633 5.78578 18.6356 5.74523 18.6125 5.72721C18.594 5.71369 18.5708 5.70017 18.5431 5.69116C18.52 5.68215 18.4922 5.68215 18.4645 5.68665C18.4368 5.68665 18.4136 5.70017 18.3905 5.71369C17.6462 6.14175 16.7307 6.93029 16.7816 8.44427C16.8417 10.3683 18.483 11.8417 20.619 11.9003H20.8733C23.4116 11.8192 25.2425 9.98529 25.2425 7.49353C25.2425 5.20903 23.5318 2.76232 20.374 2.76232L20.3832 2.75781Z" fill="#5A31F4"/>
<path fill-rule="evenodd" clip-rule="evenodd" d="M38.8724 0.558594H55.9607C57.1396 0.558594 58.0967 1.49132 58.0967 2.64032V11.7558C58.0967 12.9048 57.1396 13.8375 55.9607 13.8375H38.8724C37.6934 13.8375 36.7363 12.9048 36.7363 11.7558V2.64032C36.7363 1.49132 37.6934 0.558594 38.8724 0.558594ZM42.7052 7.78157C44.1292 7.78157 45.151 6.76774 45.151 5.34838C45.151 3.92902 44.1292 2.91519 42.7052 2.91519H40.1901C40.1623 2.91519 40.1299 2.9287 40.1115 2.94673C40.0883 2.96926 40.0791 2.99629 40.0791 3.02333V9.75516C40.0791 9.78219 40.093 9.81374 40.1115 9.83176C40.1346 9.85429 40.1623 9.8633 40.1901 9.8633H41.1379C41.1656 9.8633 41.198 9.84978 41.2165 9.83176C41.2396 9.80923 41.2488 9.78219 41.2488 9.75516V7.88971C41.2488 7.86268 41.2627 7.83113 41.2812 7.81311C41.3043 7.79058 41.332 7.78157 41.3598 7.78157H42.7052ZM42.6312 3.93803C43.408 3.93803 43.9767 4.53281 43.9767 5.34838C43.9767 6.16395 43.4034 6.75873 42.6312 6.75873H41.3598C41.332 6.75873 41.2997 6.74521 41.2812 6.72719C41.2581 6.70466 41.2488 6.67762 41.2488 6.65059V4.05068C41.2488 4.02364 41.2627 3.9921 41.2812 3.97407C41.3043 3.95155 41.332 3.94253 41.3598 3.94253H42.6312V3.93803ZM45.4284 8.57461C45.4192 8.35833 45.4654 8.14204 45.5625 7.94378C45.6596 7.74552 45.8076 7.5788 45.9879 7.45264C46.3577 7.18228 46.9264 7.0426 47.7725 7.01106L48.6695 6.97952V6.72268C48.6695 6.20901 48.3135 5.98822 47.7448 5.98822C47.1761 5.98822 46.8155 6.18648 46.7276 6.5064C46.723 6.52893 46.7045 6.54695 46.686 6.56497C46.6675 6.57849 46.6444 6.5875 46.6167 6.583H45.7336C45.7336 6.583 45.7012 6.583 45.6873 6.57399C45.6735 6.56948 45.6596 6.55596 45.6504 6.54695C45.6411 6.53343 45.6319 6.51991 45.6272 6.5064C45.6272 6.49288 45.6226 6.47486 45.6272 6.46134C45.7613 5.69984 46.4086 5.11858 47.791 5.11858C49.2567 5.11858 49.7883 5.78545 49.7883 7.05612V9.75516C49.7883 9.75516 49.7883 9.78219 49.7791 9.79571C49.7745 9.80923 49.7652 9.82275 49.756 9.83176C49.7467 9.84077 49.7329 9.84978 49.719 9.85429C49.7051 9.8588 49.6913 9.8633 49.6774 9.8633H48.7851C48.7851 9.8633 48.7573 9.8633 48.7434 9.85429C48.7296 9.84978 48.7157 9.84077 48.7065 9.83176C48.6972 9.82275 48.688 9.80923 48.6833 9.79571C48.6787 9.78219 48.6741 9.76868 48.6741 9.75516V9.55239C48.6741 9.55239 48.6741 9.51635 48.6602 9.50283C48.651 9.48931 48.6371 9.47579 48.6186 9.47129C48.6001 9.46678 48.5816 9.46228 48.5678 9.47129C48.5539 9.4803 48.5354 9.4848 48.5215 9.49832C48.2534 9.78219 47.8188 9.98947 47.1299 9.98947C46.1173 9.98947 45.4423 9.47579 45.4423 8.58362L45.4284 8.57461ZM48.6695 7.98884V7.78157L47.509 7.84015C46.8987 7.87169 46.5381 8.11951 46.5381 8.53406C46.5381 8.91255 46.8663 9.11983 47.435 9.11983C48.2117 9.11983 48.6695 8.70979 48.6695 7.98884ZM50.6761 11.1205V11.9045C50.6761 11.9315 50.6807 11.954 50.6992 11.9766C50.713 11.9991 50.7362 12.0126 50.7593 12.0216C50.9165 12.0622 51.0783 12.0847 51.2447 12.0802C52.1093 12.0802 52.8999 11.7738 53.353 10.5707L55.3411 5.39794C55.3411 5.39794 55.3504 5.3619 55.3411 5.34838C55.3411 5.33035 55.3319 5.31233 55.3226 5.29881C55.3134 5.28529 55.2995 5.27178 55.281 5.26276C55.2625 5.25375 55.2486 5.24925 55.2302 5.24925H54.3055C54.2823 5.24925 54.2592 5.25826 54.2407 5.27178C54.2222 5.2853 54.2084 5.30332 54.1991 5.32585L53.1034 8.60165C53.1034 8.60165 53.0802 8.6422 53.0618 8.65572C53.0433 8.66924 53.0201 8.67374 52.997 8.67374C52.9739 8.67374 52.9508 8.66473 52.9323 8.65572C52.9138 8.6422 52.8999 8.62418 52.8907 8.60165L51.6285 5.31684C51.6285 5.31684 51.6054 5.27628 51.5869 5.26276C51.5684 5.24925 51.5453 5.24474 51.5221 5.24474H50.6159C50.6159 5.24474 50.579 5.24925 50.5651 5.25826C50.5512 5.26727 50.5373 5.27628 50.5235 5.29431C50.5142 5.30782 50.505 5.32585 50.505 5.34387C50.505 5.3619 50.505 5.37992 50.5096 5.39344L52.3682 10.048C52.3775 10.0706 52.3775 10.0976 52.3682 10.1246L52.3081 10.3049C52.2388 10.5302 52.0955 10.7239 51.9013 10.8591C51.7071 10.9943 51.4667 11.0619 51.2309 11.0484C51.0922 11.0484 50.9535 11.0348 50.8148 11.0123C50.7963 11.0123 50.7824 11.0123 50.7639 11.0123C50.7454 11.0123 50.7315 11.0258 50.7177 11.0348C50.7038 11.0438 50.6945 11.0574 50.6853 11.0754C50.6761 11.0889 50.6761 11.1069 50.6761 11.125V11.1205Z" fill="#5A31F4"/>
</svg>
