<svg width="58" height="12" viewBox="0 0 58 12" fill="none" xmlns="http://www.w3.org/2000/svg">
<g clip-path="url(#clip0_3003_12005)">
<mask id="mask0_3003_12005" style="mask-type:luminance" maskUnits="userSpaceOnUse" x="0" y="0" width="58" height="12">
<path d="M57.6548 0.625H0.572266V11.4062H57.6548V0.625Z" fill="white"/>
</mask>
<g mask="url(#mask0_3003_12005)">
<path fill-rule="evenodd" clip-rule="evenodd" d="M23.0966 9.05689C20.9873 10.5892 17.9287 11.4044 15.295 11.4044C11.6044 11.4044 8.28057 10.0614 5.76495 7.82529C5.56769 7.64935 5.74331 7.41009 5.98077 7.54585C8.69427 9.10073 12.0503 10.0371 15.5164 10.0371C17.8545 10.0371 20.4245 9.55915 22.7899 8.57168C23.1467 8.42313 23.446 8.80302 23.0966 9.05689Z" fill="#F79C34"/>
<path fill-rule="evenodd" clip-rule="evenodd" d="M23.9744 8.07082C23.7042 7.7305 22.191 7.90949 21.5107 7.98985C21.3048 8.0142 21.2726 7.83704 21.4582 7.70858C22.6659 6.87331 24.6447 7.11439 24.8742 7.39444C25.1054 7.67632 24.8129 9.62935 23.6819 10.5614C23.5075 10.7045 23.3418 10.6284 23.4191 10.4391C23.6739 9.8126 24.244 8.41114 23.9738 8.07082H23.9744Z" fill="#F79C34"/>
<path fill-rule="evenodd" clip-rule="evenodd" d="M21.5592 1.80899V0.998068C21.5599 0.874482 21.6545 0.792293 21.7683 0.792902H25.4619C25.58 0.792902 25.6753 0.876917 25.6753 0.997459V1.69332C25.674 1.81021 25.5738 1.96241 25.397 2.2041L23.4837 4.89378C24.1936 4.87735 24.9449 4.98206 25.5905 5.33943C25.7359 5.41979 25.7754 5.53911 25.7866 5.656V6.52172C25.7866 6.64104 25.6542 6.77924 25.5145 6.7074C24.3779 6.12113 22.869 6.0572 21.6118 6.71471C21.4832 6.78228 21.349 6.64591 21.349 6.52659V5.70349C21.349 5.57199 21.3515 5.34673 21.4863 5.14583L23.7026 2.01477H21.7726C21.6545 2.01477 21.5599 1.93197 21.5592 1.81021V1.80899ZM8.08572 6.87665H6.96211C6.85512 6.86995 6.76979 6.79081 6.76113 6.68974L6.76237 1.01146C6.76237 0.898225 6.85945 0.807513 6.97942 0.807513H8.02574C8.1352 0.812384 8.22301 0.893963 8.22981 0.998068V1.73898H8.25145C8.52416 1.02181 9.03805 0.68758 9.73003 0.68758C10.422 0.68758 10.8734 1.02242 11.1882 1.73898C11.4609 1.02181 12.0799 0.68758 12.7404 0.68758C13.2128 0.68758 13.7261 0.878743 14.0408 1.30917C14.3976 1.78707 14.3247 2.47989 14.3247 3.0893L14.3234 6.6727C14.3234 6.78594 14.227 6.87665 14.107 6.87665H12.9846C12.8715 6.86934 12.783 6.78167 12.783 6.6727V3.66279C12.783 3.42414 12.8034 2.82691 12.7509 2.59982C12.6674 2.21689 12.4157 2.10974 12.0904 2.10974C11.8177 2.10974 11.5345 2.28873 11.4189 2.57547C11.3032 2.86282 11.3143 3.34012 11.3143 3.66279V6.6727C11.3143 6.78594 11.2173 6.87665 11.0979 6.87665H9.97553C9.86236 6.86934 9.77393 6.78167 9.77393 6.6727L9.7727 3.66279C9.7727 3.02964 9.87782 2.09817 9.08072 2.09817C8.28361 2.09817 8.30463 3.00589 8.30463 3.66279V6.6727C8.30402 6.78594 8.20693 6.87665 8.08758 6.87665H8.08572ZM28.8643 1.84674C28.0357 1.84674 27.9831 2.9578 27.9831 3.65061C27.9831 4.34343 27.9726 5.82525 28.8538 5.82525C29.735 5.82525 29.7665 4.63017 29.7665 3.90144C29.7665 3.42353 29.7449 2.85004 29.5983 2.39587C29.4728 2.00137 29.2205 1.84613 28.8637 1.84613L28.8643 1.84674ZM28.8544 0.68758C30.5222 0.68758 31.4238 2.09817 31.4238 3.88987C31.4238 5.68157 30.4276 6.99597 28.8544 6.99597C27.2812 6.99597 26.3264 5.58599 26.3264 3.8296C26.3264 2.07321 27.228 0.68758 28.8544 0.68758ZM33.587 6.87665H32.4671C32.3551 6.86934 32.2655 6.78167 32.2655 6.6727L32.2636 0.992589C32.2735 0.888484 32.3663 0.807513 32.4794 0.807513H33.5214C33.6197 0.812384 33.7007 0.878134 33.7211 0.965802V1.83456H33.7422C34.0569 1.05773 34.4972 0.68758 35.2733 0.68758C35.7767 0.68758 36.2702 0.866567 36.5849 1.35665C36.8787 1.81082 36.8787 2.57486 36.8787 3.12461V6.69766C36.8663 6.79811 36.7748 6.87604 36.6635 6.87604H35.5374C35.4335 6.86995 35.3494 6.79446 35.337 6.69766V3.61469C35.337 2.99311 35.4106 2.08478 34.6345 2.08478C34.3618 2.08478 34.1101 2.26376 33.984 2.53894C33.8263 2.88535 33.8052 3.23176 33.8052 3.61469V6.67209C33.8034 6.78533 33.7063 6.87604 33.5863 6.87604L33.587 6.87665ZM19.7467 6.86264C19.6725 6.9284 19.5655 6.93266 19.4814 6.88821C19.1086 6.5826 19.0411 6.44196 18.8371 6.15096C18.2205 6.7695 17.7833 6.95518 16.9844 6.95518C16.0382 6.95518 15.3024 6.38047 15.3024 5.23106C15.3024 4.33308 15.7971 3.72245 16.5008 3.42292C17.1105 3.15931 17.9621 3.11182 18.6138 3.03938V2.8957C18.6138 2.63148 18.6349 2.32099 18.4772 2.0933C18.3405 1.88935 18.0777 1.80595 17.8464 1.80595C17.4179 1.80595 17.0369 2.02207 16.9429 2.47015C16.9232 2.56999 16.8496 2.66862 16.7482 2.6741L15.6585 2.55782C15.5664 2.53712 15.4644 2.46467 15.491 2.32647C15.7389 1.04373 16.9028 0.643746 17.9602 0.633396H18.0437C18.5848 0.640093 19.2761 0.786205 19.6973 1.18375C20.2439 1.68662 20.1914 2.35752 20.1914 3.08808V4.8116C20.1914 5.33029 20.4103 5.55738 20.6156 5.83682C20.6879 5.93788 20.7034 6.0572 20.6119 6.13087C20.3824 6.3202 19.9743 6.66905 19.7504 6.86569L19.7474 6.86325L19.7467 6.86264ZM18.6145 4.16566C18.6145 4.59669 18.625 4.95588 18.4042 5.33943C18.2255 5.65052 17.9417 5.84229 17.6263 5.84229C17.1953 5.84229 16.9436 5.51902 16.9436 5.0399C16.9436 4.09747 17.8019 3.9264 18.6151 3.9264V4.16627L18.6145 4.16566ZM5.01665 6.86264C4.94244 6.9284 4.83484 6.93266 4.75136 6.88821C4.37785 6.5826 4.31106 6.44196 4.10699 6.15096C3.48984 6.7695 3.05325 6.95518 2.25429 6.95518C1.30815 6.95518 0.572266 6.38047 0.572266 5.23106C0.572266 4.33308 1.06636 3.72245 1.77071 3.42292C2.38044 3.15931 3.23197 3.11182 3.88313 3.03938V2.8957C3.88313 2.63148 3.90478 2.32099 3.74647 2.0933C3.60981 1.88935 3.34699 1.80595 3.11571 1.80595C2.68717 1.80595 2.30562 2.02207 2.21224 2.47015C2.19307 2.56999 2.11886 2.66862 2.01683 2.6741L0.927841 2.55782C0.8357 2.53712 0.733666 2.46467 0.760257 2.32647C1.00761 1.04373 2.17143 0.643746 3.22949 0.633396H3.31298C3.85407 0.640093 4.54543 0.786205 4.96656 1.18375C5.51321 1.68662 5.46065 2.35752 5.46065 3.08808V4.8116C5.46065 5.33029 5.67956 5.55738 5.88487 5.83682C5.9566 5.93788 5.97268 6.0572 5.88116 6.13087C5.65173 6.3202 5.2436 6.66905 5.01912 6.86569L5.01665 6.86325V6.86264ZM3.88375 4.16566C3.88375 4.59669 3.89427 4.95588 3.6735 5.33943C3.49478 5.65052 3.21094 5.84229 2.89556 5.84229C2.46454 5.84229 2.21286 5.51902 2.21286 5.0399C2.21286 4.09747 3.07119 3.9264 3.88437 3.9264V4.16627L3.88375 4.16566ZM52.2407 8.91369V8.49667C52.2407 8.37795 52.3001 8.29637 52.4256 8.30368C52.6606 8.33655 52.9927 8.36943 53.2283 8.32133C53.5363 8.25802 53.757 8.04311 53.8875 7.74906C54.0718 7.33447 54.1936 7.00023 54.2703 6.78106L51.9328 1.07965C51.8932 0.982848 51.8815 0.803252 52.0781 0.803252H52.895C53.0508 0.803252 53.1145 0.90066 53.1492 0.996242L54.8442 5.62739L56.4619 0.996242C56.4947 0.901269 56.5614 0.803252 56.716 0.803252H57.4866C57.6814 0.803252 57.6708 0.982239 57.6319 1.07965L55.3129 6.95883C55.013 7.74114 54.6129 8.98797 53.7125 9.20409C53.2611 9.32037 52.6915 9.27837 52.357 9.14017C52.2729 9.09816 52.2401 8.98675 52.2401 8.91369H52.2407ZM51.1505 6.52963C51.1505 6.63556 51.0621 6.72262 50.9539 6.72262H50.3775C50.2532 6.72262 50.1679 6.63434 50.1524 6.52963L50.0943 6.14365C49.8296 6.36404 49.5044 6.55824 49.1519 6.6934C48.4741 6.95275 47.6925 6.99536 47.0302 6.59477C46.5515 6.30559 46.2968 5.73941 46.2968 5.15618C46.2968 4.70445 46.4384 4.25698 46.7513 3.93188C47.1693 3.48745 47.7753 3.2695 48.5075 3.2695C48.9497 3.2695 49.5823 3.32064 50.0424 3.46858V2.69114C50.0424 1.90092 49.7047 1.55877 48.8136 1.55877C48.1328 1.55877 47.6115 1.65983 46.8867 1.88205C46.7705 1.8857 46.7024 1.79925 46.7024 1.69271V1.2495C46.7024 1.14296 46.7946 1.04008 46.8947 1.00903C47.4123 0.786814 48.1458 0.648617 48.9255 0.623047C49.9422 0.623047 51.1499 0.848912 51.1499 2.38796V6.52902L51.1505 6.52963ZM50.043 5.39483V4.22228C49.6565 4.11817 49.0164 4.07495 48.7685 4.07495C48.377 4.07495 47.9485 4.16627 47.7246 4.40309C47.5577 4.57721 47.4816 4.82682 47.4816 5.0679C47.4816 5.37961 47.5911 5.69314 47.8471 5.84777C48.1445 6.04685 48.6058 6.0225 49.0399 5.90135C49.4567 5.78507 49.8482 5.57868 50.0424 5.39543L50.043 5.39483ZM42.6538 1.57704C43.9327 1.57704 44.2808 2.56695 44.2808 3.70053C44.2882 4.46458 44.1454 5.14583 43.7434 5.53607C43.4429 5.82829 43.1065 5.90744 42.6006 5.90744C42.1504 5.90744 41.5586 5.67609 41.1159 5.35465V2.11339C41.5766 1.76516 42.1641 1.57704 42.6538 1.57704ZM40.9198 9.11703H40.1481C40.0399 9.11703 39.9521 9.02997 39.9521 8.92404V1.00598C39.9521 0.900051 40.0405 0.812993 40.1481 0.812993H40.7387C40.863 0.812993 40.9477 0.901269 40.9638 1.00598L41.0256 1.42058C41.5791 0.937188 42.2914 0.6267 42.9698 0.6267C44.8708 0.6267 45.4959 2.16879 45.4959 3.77237C45.4959 5.48797 44.5399 6.86691 42.9222 6.86691C42.2414 6.86691 41.6044 6.61973 41.1146 6.18992V8.92404C41.1146 9.02997 41.0262 9.11703 40.9186 9.11703H40.9198Z" fill="#333E47"/>
</g>
</g>
<defs>
<clipPath id="clip0_3003_12005">
<rect width="57.0825" height="10.7812" fill="white" transform="translate(0.572266 0.625)"/>
</clipPath>
</defs>
</svg>
