<svg width="57" height="11" viewBox="0 0 57 11" fill="none" xmlns="http://www.w3.org/2000/svg">
<path d="M3.2198 0.929688H0.642578V9.72661H3.2198C4.578 9.72661 5.57771 9.40655 6.43716 8.70674C7.46805 7.87023 8.07701 6.62143 8.07701 5.32815C8.06142 2.7405 6.07757 0.929688 3.2198 0.929688ZM5.28158 7.53498C4.73497 8.02213 4.01691 8.23478 2.87692 8.23478H2.40823V2.42152H2.87692C4.01691 2.42152 4.70379 2.61898 5.28158 3.13651C5.89054 3.66923 6.25013 4.47536 6.25013 5.32815C6.25013 6.16575 5.89054 7.00226 5.28158 7.53498Z" fill="#231F20"/>
<path d="M10.6356 0.929688H8.87109V9.72661H10.6356V0.929688Z" fill="#231F20"/>
<path d="M14.9312 4.30935C13.8691 3.92853 13.573 3.67031 13.573 3.19834C13.573 2.65044 14.1196 2.22404 14.8844 2.22404C15.4155 2.22404 15.8374 2.4367 16.305 2.93904L17.2267 1.76727C16.4775 1.12822 15.5713 0.792969 14.5716 0.792969C12.9785 0.792969 11.7606 1.8736 11.7606 3.30467C11.7606 4.52201 12.3228 5.13067 13.9782 5.70896C14.6651 5.95199 15.0247 6.10498 15.1961 6.2113C15.5557 6.43915 15.7272 6.75921 15.7272 7.12485C15.7272 7.83984 15.1494 8.35737 14.369 8.35737C13.5262 8.35737 12.8538 7.94617 12.4486 7.1856L11.3086 8.25104C12.1202 9.40762 13.0887 9.92515 14.4313 9.92515C16.2582 9.92515 17.5385 8.73819 17.5385 7.03371C17.5385 5.64929 16.9451 5.02435 14.9301 4.30935H14.9312Z" fill="#231F20"/>
<path d="M18.0859 5.32987C18.0859 7.91752 20.1633 9.9106 22.8485 9.9106C23.5977 9.9106 24.2535 9.75871 25.0506 9.39307V7.36852C24.3481 8.05314 23.7235 8.32764 22.9264 8.32764C21.1619 8.32764 19.8972 7.07992 19.8972 5.29949C19.8972 3.51905 21.1931 2.28653 22.8485 2.28653C23.6913 2.28653 24.3169 2.57622 25.0506 3.27602V1.25147C24.2857 0.870646 23.6456 0.71875 22.8797 0.71875C20.2245 0.73394 18.0859 2.77368 18.0859 5.32987Z" fill="#231F20"/>
<path d="M38.995 6.83517L36.5903 0.929688H34.6699L38.5107 9.95554H39.4481L43.3523 0.929688H41.4475L38.995 6.83517Z" fill="#231F20"/>
<path d="M44.1484 9.72661H49.1303V8.23587H45.8974V5.86087H49.0056V4.37012H45.8974V2.42152H49.1303V0.929688H44.1484V9.72661Z" fill="#231F20"/>
<path d="M56.0954 3.53253C56.0954 1.8888 54.9398 0.929688 52.9092 0.929688H50.3008V9.72661H52.0653V6.19612H52.2991L54.7349 9.72661H56.9058L54.0636 6.02795C55.3595 5.75454 56.0943 4.87138 56.0943 3.53253H56.0954ZM52.5663 4.97879H52.0508V2.31519H52.5975C53.6907 2.31519 54.2841 2.75677 54.2841 3.62366C54.2841 4.49055 53.6907 4.97771 52.5663 4.97771V4.97879Z" fill="#231F20"/>
<path d="M30.4227 10.0312C33.0702 10.0312 35.2164 7.93958 35.2164 5.35938C35.2164 2.77917 33.0702 0.6875 30.4227 0.6875C27.7751 0.6875 25.6289 2.77917 25.6289 5.35938C25.6289 7.93958 27.7751 10.0312 30.4227 10.0312Z" fill="url(#paint0_linear_3003_11981)"/>
<path opacity="0.65" d="M30.4227 10.0312C33.0702 10.0312 35.2164 7.93958 35.2164 5.35938C35.2164 2.77917 33.0702 0.6875 30.4227 0.6875C27.7751 0.6875 25.6289 2.77917 25.6289 5.35938C25.6289 7.93958 27.7751 10.0312 30.4227 10.0312Z" fill="url(#paint1_linear_3003_11981)"/>
<defs>
<linearGradient id="paint0_linear_3003_11981" x1="32.8796" y1="9.10903" x2="29.6779" y2="3.96416" gradientUnits="userSpaceOnUse">
<stop stop-color="#F89F20"/>
<stop offset="0.25" stop-color="#F79A20"/>
<stop offset="0.53" stop-color="#F68D20"/>
<stop offset="0.62" stop-color="#F58720"/>
<stop offset="0.72" stop-color="#F48120"/>
<stop offset="1" stop-color="#F37521"/>
</linearGradient>
<linearGradient id="paint1_linear_3003_11981" x1="32.3553" y1="9.03959" x2="27.6944" y2="-0.307125" gradientUnits="userSpaceOnUse">
<stop stop-color="#F58720"/>
<stop offset="0.36" stop-color="#E16F27"/>
<stop offset="0.7" stop-color="#D4602C"/>
<stop offset="0.98" stop-color="#D05B2E"/>
</linearGradient>
</defs>
</svg>
