<svg width="14" height="18" viewBox="0 0 14 18" fill="none" xmlns="http://www.w3.org/2000/svg">
<path d="M6.99951 -0.000473328C6.76067 0.00635308 6.61671 0.0867841 6.51342 0.189745L0.291466 5.84191C-0.0451994 6.10889 -0.0984761 6.71391 0.174904 7.09216C0.448284 7.47041 0.959445 7.4905 1.26364 7.18702L6.22177 2.68974L6.22177 16.4995C6.22177 16.9798 6.56997 17.3691 6.99951 17.3691C7.42906 17.3691 7.77726 16.9798 7.77726 16.4995L7.77726 2.68974L12.7354 7.18702C13.0426 7.53126 13.5815 7.43343 13.8706 7.07007C14.0931 6.79034 14.0222 6.04487 13.7075 5.84191L7.4856 0.189745C7.32445 0.0425488 7.2046 -0.00226434 6.99951 -0.000473328Z" fill="#787A78"/>
</svg>
