<svg width="24" height="18" viewBox="0 0 24 18" fill="none" xmlns="http://www.w3.org/2000/svg">
<path d="M23.976 8.99932C23.9678 8.70699 23.8714 8.53079 23.748 8.40438L16.9721 0.789109C16.6521 0.377052 15.9268 0.311845 15.4733 0.646445C15.0199 0.981044 14.9958 1.60667 15.3596 1.97899L20.751 8.04742H1.04244C0.466698 8.04742 0 8.47358 0 8.99932C0 9.52506 0.466698 9.95123 1.04244 9.95123H20.751L15.3596 16.0196C14.9469 16.3956 15.0642 17.0553 15.4998 17.4091C15.8351 17.6814 16.7288 17.5946 16.9721 17.2095L23.748 9.59426C23.9244 9.39703 23.9781 9.25034 23.976 8.99932Z" fill="#35C0B4"/>
</svg>
