<svg width="40" height="40" viewBox="0 0 40 40" fill="none" xmlns="http://www.w3.org/2000/svg">
<g clip-path="url(#clip0_3674_9511)">
<circle cx="20" cy="20" r="20" fill="#F6F6F8"/>
<path d="M29.9199 24.75C29.5899 27.41 27.4099 29.59 24.7499 29.92C23.1399 30.12 21.6399 29.68 20.4699 28.82C19.7999 28.33 19.9599 27.29 20.7599 27.05C23.7699 26.14 26.1399 23.76 27.0599 20.75C27.2999 19.96 28.3399 19.8 28.8299 20.46C29.6799 21.64 30.1199 23.14 29.9199 24.75Z" fill="url(#paint0_linear_3674_9511)"/>
<path d="M17.99 10C13.58 10 10 13.58 10 17.99C10 22.4 13.58 25.98 17.99 25.98C22.4 25.98 25.98 22.4 25.98 17.99C25.97 13.58 22.4 10 17.99 10ZM17.05 16.87L19.46 17.71C20.33 18.02 20.75 18.63 20.75 19.57C20.75 20.65 19.89 21.54 18.84 21.54H18.75V21.59C18.75 22 18.41 22.34 18 22.34C17.59 22.34 17.25 22 17.25 21.59V21.53C16.14 21.48 15.25 20.55 15.25 19.39C15.25 18.98 15.59 18.64 16 18.64C16.41 18.64 16.75 18.98 16.75 19.39C16.75 19.75 17.01 20.04 17.33 20.04H18.83C19.06 20.04 19.24 19.83 19.24 19.57C19.24 19.22 19.18 19.2 18.95 19.12L16.54 18.28C15.68 17.98 15.25 17.37 15.25 16.42C15.25 15.34 16.11 14.45 17.16 14.45H17.25V14.41C17.25 14 17.59 13.66 18 13.66C18.41 13.66 18.75 14 18.75 14.41V14.47C19.86 14.52 20.75 15.45 20.75 16.61C20.75 17.02 20.41 17.36 20 17.36C19.59 17.36 19.25 17.02 19.25 16.61C19.25 16.25 18.99 15.96 18.67 15.96H17.17C16.94 15.96 16.76 16.17 16.76 16.43C16.75 16.77 16.81 16.79 17.05 16.87Z" fill="url(#paint1_linear_3674_9511)"/>
</g>
<defs>
<linearGradient id="paint0_linear_3674_9511" x1="25.0202" y1="21.4624" x2="25.0106" y2="29.9677" gradientUnits="userSpaceOnUse">
<stop stop-color="#2DB9B0"/>
<stop offset="0.192695" stop-color="#24B3BC"/>
<stop offset="0.380161" stop-color="#1CAEC8"/>
<stop offset="0.690449" stop-color="#0EA4DB"/>
<stop offset="0.852057" stop-color="#079FE6"/>
<stop offset="1" stop-color="#077AB9"/>
</linearGradient>
<linearGradient id="paint1_linear_3674_9511" x1="18.0076" y1="12.2781" x2="17.9922" y2="25.98" gradientUnits="userSpaceOnUse">
<stop stop-color="#2DB9B0"/>
<stop offset="0.192695" stop-color="#24B3BC"/>
<stop offset="0.380161" stop-color="#1CAEC8"/>
<stop offset="0.690449" stop-color="#0EA4DB"/>
<stop offset="0.852057" stop-color="#079FE6"/>
<stop offset="1" stop-color="#077AB9"/>
</linearGradient>
<clipPath id="clip0_3674_9511">
<rect width="40" height="40" fill="white"/>
</clipPath>
</defs>
</svg>
