<svg width="40" height="40" viewBox="0 0 40 40" fill="none" xmlns="http://www.w3.org/2000/svg">
<g clip-path="url(#clip0_3674_7397)">
<circle cx="20" cy="20" r="20" fill="#F6F6F8"/>
<path d="M27.1709 14.64C26.7409 12.47 25.1309 11.52 22.8909 11.52H14.1109C11.4709 11.52 9.71094 12.84 9.71094 15.92V21.07C9.71094 23.29 10.6209 24.59 12.1209 25.15C12.3409 25.23 12.5809 25.3 12.8309 25.34C13.2309 25.43 13.6609 25.47 14.1109 25.47H22.9009C25.5409 25.47 27.3009 24.15 27.3009 21.07V15.92C27.3009 15.45 27.2609 15.03 27.1709 14.64ZM13.5309 20C13.5309 20.41 13.1909 20.75 12.7809 20.75C12.3709 20.75 12.0309 20.41 12.0309 20V17C12.0309 16.59 12.3709 16.25 12.7809 16.25C13.1909 16.25 13.5309 16.59 13.5309 17V20ZM18.5009 21.14C17.0409 21.14 15.8609 19.96 15.8609 18.5C15.8609 17.04 17.0409 15.86 18.5009 15.86C19.9609 15.86 21.1409 17.04 21.1409 18.5C21.1409 19.96 19.9609 21.14 18.5009 21.14ZM24.9609 20C24.9609 20.41 24.6209 20.75 24.2109 20.75C23.8009 20.75 23.4609 20.41 23.4609 20V17C23.4609 16.59 23.8009 16.25 24.2109 16.25C24.6209 16.25 24.9609 16.59 24.9609 17V20Z" fill="url(#paint0_linear_3674_7397)"/>
<path d="M30.2998 18.92V24.07C30.2998 27.15 28.5398 28.48 25.8898 28.48H17.1098C16.3598 28.48 15.6898 28.37 15.1098 28.15C14.6398 27.98 14.2298 27.73 13.8998 27.41C13.7198 27.24 13.8598 26.97 14.1098 26.97H22.8898C26.5898 26.97 28.7898 24.77 28.7898 21.08V15.92C28.7898 15.68 29.0598 15.53 29.2298 15.71C29.9098 16.43 30.2998 17.48 30.2998 18.92Z" fill="url(#paint1_linear_3674_7397)"/>
</g>
<defs>
<linearGradient id="paint0_linear_3674_7397" x1="18.5254" y1="13.5088" x2="18.5147" y2="25.47" gradientUnits="userSpaceOnUse">
<stop stop-color="#2DB9B0"/>
<stop offset="0.192695" stop-color="#24B3BC"/>
<stop offset="0.380161" stop-color="#1CAEC8"/>
<stop offset="0.690449" stop-color="#0EA4DB"/>
<stop offset="0.852057" stop-color="#079FE6"/>
<stop offset="1" stop-color="#077AB9"/>
</linearGradient>
<linearGradient id="paint1_linear_3674_7397" x1="22.0773" y1="17.4625" x2="22.0676" y2="28.48" gradientUnits="userSpaceOnUse">
<stop stop-color="#2DB9B0"/>
<stop offset="0.192695" stop-color="#24B3BC"/>
<stop offset="0.380161" stop-color="#1CAEC8"/>
<stop offset="0.690449" stop-color="#0EA4DB"/>
<stop offset="0.852057" stop-color="#079FE6"/>
<stop offset="1" stop-color="#077AB9"/>
</linearGradient>
<clipPath id="clip0_3674_7397">
<rect width="40" height="40" fill="white"/>
</clipPath>
</defs>
</svg>
