<svg width="40" height="40" viewBox="0 0 40 40" fill="none" xmlns="http://www.w3.org/2000/svg">
<g clip-path="url(#clip0_3730_10244)">
<circle cx="20" cy="20" r="20" fill="#F6F6F8"/>
<path d="M23 28H17M12 21.8002V16.2002C12 15.0801 12 14.5196 12.218 14.0918C12.4097 13.7155 12.7155 13.4097 13.0918 13.218C13.5196 13 14.0801 13 15.2002 13H24.8002C25.9203 13 26.4796 13 26.9074 13.218C27.2837 13.4097 27.5905 13.7155 27.7822 14.0918C28 14.5192 28 15.079 28 16.1969V21.8031C28 22.921 28 23.48 27.7822 23.9074C27.5905 24.2837 27.2837 24.5905 26.9074 24.7822C26.48 25 25.921 25 24.8031 25H15.1969C14.079 25 13.5192 25 13.0918 24.7822C12.7155 24.5905 12.4097 24.2837 12.218 23.9074C12 23.4796 12 22.9203 12 21.8002ZM22.5 19L18 16V22L22.5 19Z" stroke="url(#paint0_linear_3730_10244)" stroke-width="2" stroke-linecap="round" stroke-linejoin="round"/>
</g>
<defs>
<linearGradient id="paint0_linear_3730_10244" x1="20.0177" y1="15.1384" x2="20.0041" y2="28" gradientUnits="userSpaceOnUse">
<stop stop-color="#2DB9B0"/>
<stop offset="0.192695" stop-color="#24B3BC"/>
<stop offset="0.380161" stop-color="#1CAEC8"/>
<stop offset="0.690449" stop-color="#0EA4DB"/>
<stop offset="0.852057" stop-color="#079FE6"/>
<stop offset="1" stop-color="#077AB9"/>
</linearGradient>
<clipPath id="clip0_3730_10244">
<rect width="40" height="40" fill="white"/>
</clipPath>
</defs>
</svg>
