<svg width="40" height="41" viewBox="0 0 40 41" fill="none" xmlns="http://www.w3.org/2000/svg">
<g clip-path="url(#clip0_3730_10031)">
<circle cx="20" cy="20.5" r="20" fill="#F6F6F8"/>
<path d="M20.678 28.4571C20.9528 28.521 20.9779 28.8808 20.7103 28.97L19.1303 29.49C15.1603 30.77 13.0703 29.7 11.7803 25.73L10.5003 21.78C9.22034 17.81 10.2803 15.71 14.2503 14.43L14.7743 14.2565C15.1772 14.1231 15.5693 14.5272 15.4549 14.9358C15.3982 15.1384 15.3436 15.3498 15.2903 15.57L14.3103 19.76C13.2103 24.47 14.8203 27.07 19.5303 28.19L20.678 28.4571Z" fill="url(#paint0_linear_3730_10031)"/>
<path d="M25.1702 11.71L23.5002 11.32C20.1602 10.53 18.1702 11.18 17.0002 13.6C16.7002 14.21 16.4602 14.95 16.2602 15.8L15.2802 19.99C14.3002 24.17 15.5902 26.23 19.7602 27.22L21.4402 27.62C22.0202 27.76 22.5602 27.85 23.0602 27.89C26.1802 28.19 27.8402 26.73 28.6802 23.12L29.6602 18.94C30.6402 14.76 29.3602 12.69 25.1702 11.71ZM23.2902 21.83C23.2002 22.17 22.9002 22.39 22.5602 22.39C22.5002 22.39 22.4402 22.38 22.3702 22.37L19.4602 21.63C19.0602 21.53 18.8202 21.12 18.9202 20.72C19.0202 20.32 19.4302 20.08 19.8302 20.18L22.7402 20.92C23.1502 21.02 23.3902 21.43 23.2902 21.83ZM26.2202 18.45C26.1302 18.79 25.8302 19.01 25.4902 19.01C25.4302 19.01 25.3702 19 25.3002 18.99L20.4502 17.76C20.0502 17.66 19.8102 17.25 19.9102 16.85C20.0102 16.45 20.4202 16.21 20.8202 16.31L25.6702 17.54C26.0802 17.63 26.3202 18.04 26.2202 18.45Z" fill="url(#paint1_linear_3730_10031)"/>
</g>
<defs>
<linearGradient id="paint0_linear_3730_10031" x1="15.7811" y1="16.2128" x2="15.7595" y2="30.0023" gradientUnits="userSpaceOnUse">
<stop stop-color="#2DB9B0"/>
<stop offset="0.192695" stop-color="#24B3BC"/>
<stop offset="0.380161" stop-color="#1CAEC8"/>
<stop offset="0.690449" stop-color="#0EA4DB"/>
<stop offset="0.852057" stop-color="#079FE6"/>
<stop offset="1" stop-color="#077AB9"/>
</linearGradient>
<linearGradient id="paint1_linear_3730_10031" x1="22.4872" y1="13.4146" x2="22.4688" y2="27.9281" gradientUnits="userSpaceOnUse">
<stop stop-color="#2DB9B0"/>
<stop offset="0.192695" stop-color="#24B3BC"/>
<stop offset="0.380161" stop-color="#1CAEC8"/>
<stop offset="0.690449" stop-color="#0EA4DB"/>
<stop offset="0.852057" stop-color="#079FE6"/>
<stop offset="1" stop-color="#077AB9"/>
</linearGradient>
<clipPath id="clip0_3730_10031">
<rect width="40" height="40" fill="white" transform="translate(0 0.5)"/>
</clipPath>
</defs>
</svg>
