<svg width="40" height="40" viewBox="0 0 40 40" fill="none" xmlns="http://www.w3.org/2000/svg">
<g clip-path="url(#clip0_3674_1403)">
<circle cx="20" cy="20" r="20" fill="#F6F6F8"/>
<path d="M26 20V25C26 26.6569 23.3137 28 20 28C16.6863 28 14 26.6569 14 25V20M26 20V15M26 20C26 21.6569 23.3137 23 20 23C16.6863 23 14 21.6569 14 20M26 15C26 13.3431 23.3137 12 20 12C16.6863 12 14 13.3431 14 15M26 15C26 16.6569 23.3137 18 20 18C16.6863 18 14 16.6569 14 15M14 20V15" stroke="url(#paint0_linear_3674_1403)" stroke-width="2" stroke-linecap="round" stroke-linejoin="round"/>
</g>
<defs>
<linearGradient id="paint0_linear_3674_1403" x1="20.0132" y1="14.281" x2="19.9926" y2="28" gradientUnits="userSpaceOnUse">
<stop stop-color="#2DB9B0"/>
<stop offset="0.192695" stop-color="#24B3BC"/>
<stop offset="0.380161" stop-color="#1CAEC8"/>
<stop offset="0.690449" stop-color="#0EA4DB"/>
<stop offset="0.852057" stop-color="#079FE6"/>
<stop offset="1" stop-color="#077AB9"/>
</linearGradient>
<clipPath id="clip0_3674_1403">
<rect width="40" height="40" fill="white"/>
</clipPath>
</defs>
</svg>
