<svg width="40" height="40" viewBox="0 0 40 40" fill="none" xmlns="http://www.w3.org/2000/svg">
<g clip-path="url(#clip0_3576_14314)">
<circle cx="20" cy="20" r="20" fill="#F6F6F8"/>
<path d="M15 14.2002V25.8002C15 26.9203 15 27.4801 15.218 27.9079C15.4097 28.2842 15.7155 28.5905 16.0918 28.7822C16.5192 29 17.079 29 18.1969 29H21.8031C22.921 29 23.48 29 23.9074 28.7822C24.2837 28.5905 24.5905 28.2842 24.7822 27.9079C25 27.4805 25 26.9215 25 25.8036V14.1969C25 13.079 25 12.5192 24.7822 12.0918C24.5905 11.7155 24.2837 11.4097 23.9074 11.218C23.4796 11 22.9203 11 21.8002 11H18.2002C17.0801 11 16.5196 11 16.0918 11.218C15.7155 11.4097 15.4097 11.7155 15.218 12.0918C15 12.5196 15 13.0801 15 14.2002Z" stroke="url(#paint0_linear_3576_14314)" stroke-width="2" stroke-linecap="round" stroke-linejoin="round"/>
<circle cx="20" cy="20" r="20" fill="url(#paint1_linear_3576_14314)"/>
<path d="M13.5365 27.1791C13.2402 26.8828 13.2402 26.4024 13.5365 26.1061L25.8761 13.7664C26.1724 13.4701 26.6528 13.4701 26.9491 13.7664C27.2455 14.0627 27.2455 14.5431 26.9491 14.8394L14.6095 27.1791C14.3132 27.4754 13.8328 27.4754 13.5365 27.1791Z" fill="white"/>
<path d="M26.9818 13.0234C26.5906 13.0234 26.2734 13.3405 26.2734 13.7318L26.2734 20.5068C26.2734 20.898 26.5906 21.2152 26.9818 21.2152C27.3731 21.2152 27.6902 20.898 27.6902 20.5068L27.6902 13.7318C27.6902 13.3405 27.3731 13.0234 26.9818 13.0234Z" fill="white"/>
<path d="M18.5879 13.7665C18.5879 13.3475 18.9276 13.0078 19.3466 13.0078L26.6032 13.0078C27.0222 13.0078 27.3619 13.3475 27.3619 13.7665C27.3619 14.1856 27.0222 14.5253 26.6032 14.5253L19.3466 14.5253C18.9276 14.5253 18.5879 14.1856 18.5879 13.7665Z" fill="white"/>
</g>
<defs>
<linearGradient id="paint0_linear_3576_14314" x1="20.011" y1="13.5661" x2="19.9797" y2="29" gradientUnits="userSpaceOnUse">
<stop stop-color="#2DB9B0"/>
<stop offset="0.192695" stop-color="#24B3BC"/>
<stop offset="0.380161" stop-color="#1CAEC8"/>
<stop offset="0.690449" stop-color="#0EA4DB"/>
<stop offset="0.852057" stop-color="#079FE6"/>
<stop offset="1" stop-color="#077AB9"/>
</linearGradient>
<linearGradient id="paint1_linear_3576_14314" x1="-9.37761" y1="-5.53849" x2="55.6313" y2="18.0544" gradientUnits="userSpaceOnUse">
<stop offset="0.0185589" stop-color="#2ABAAE"/>
<stop offset="1" stop-color="#AAFFF8"/>
</linearGradient>
<clipPath id="clip0_3576_14314">
<rect width="40" height="40" fill="white"/>
</clipPath>
</defs>
</svg>
