<svg width="32" height="32" viewBox="0 0 32 32" fill="none" xmlns="http://www.w3.org/2000/svg">
<rect width="32" height="32" rx="8" fill="#F2F2F2"/>
<path d="M15.9995 6.99953C15.7607 7.00635 15.6167 7.08678 15.5134 7.18974L9.29147 12.8419C8.9548 13.1089 8.90152 13.7139 9.1749 14.0922C9.44828 14.4704 9.95944 14.4905 10.2636 14.187L15.2218 9.68974L15.2218 23.4995C15.2218 23.9798 15.57 24.3691 15.9995 24.3691C16.4291 24.3691 16.7773 23.9798 16.7773 23.4995L16.7773 9.68974L21.7354 14.187C22.0426 14.5313 22.5815 14.4334 22.8706 14.0701C23.0931 13.7903 23.0222 13.0449 22.7075 12.8419L16.4856 7.18974C16.3245 7.04255 16.2046 6.99774 15.9995 6.99953Z" fill="#787A78"/>
</svg>
