<svg width="40" height="41" viewBox="0 0 40 41" fill="none" xmlns="http://www.w3.org/2000/svg">
<g clip-path="url(#clip0_3730_8668)">
<circle cx="20" cy="20.5" r="20" fill="#F6F6F8"/>
<path d="M30 20.5C30 14.99 25.51 10.5 20 10.5C14.49 10.5 10 14.99 10 20.5C10 23.4 11.25 26.01 13.23 27.84C13.23 27.85 13.23 27.85 13.22 27.86C13.32 27.96 13.44 28.04 13.54 28.13C13.6 28.18 13.65 28.23 13.71 28.27C13.89 28.42 14.09 28.56 14.28 28.7C14.35 28.75 14.41 28.79 14.48 28.84C14.67 28.97 14.87 29.09 15.08 29.2C15.15 29.24 15.23 29.29 15.3 29.33C15.5 29.44 15.71 29.54 15.93 29.63C16.01 29.67 16.09 29.71 16.17 29.74C16.39 29.83 16.61 29.91 16.83 29.98C16.91 30.01 16.99 30.04 17.07 30.06C17.31 30.13 17.55 30.19 17.79 30.25C17.86 30.27 17.93 30.29 18.01 30.3C18.29 30.36 18.57 30.4 18.86 30.43C18.9 30.43 18.94 30.44 18.98 30.45C19.32 30.48 19.66 30.5 20 30.5C20.34 30.5 20.68 30.48 21.01 30.45C21.05 30.45 21.09 30.44 21.13 30.43C21.42 30.4 21.7 30.36 21.98 30.3C22.05 30.29 22.12 30.26 22.2 30.25C22.44 30.19 22.69 30.14 22.92 30.06C23 30.03 23.08 30 23.16 29.98C23.38 29.9 23.61 29.83 23.82 29.74C23.9 29.71 23.98 29.67 24.06 29.63C24.27 29.54 24.48 29.44 24.69 29.33C24.77 29.29 24.84 29.24 24.91 29.2C25.11 29.08 25.31 28.97 25.51 28.84C25.58 28.8 25.64 28.75 25.71 28.7C25.91 28.56 26.1 28.42 26.28 28.27C26.34 28.22 26.39 28.17 26.45 28.13C26.56 28.04 26.67 27.95 26.77 27.86C26.77 27.85 26.77 27.85 26.76 27.84C28.75 26.01 30 23.4 30 20.5ZM24.94 25.47C22.23 23.65 17.79 23.65 15.06 25.47C14.62 25.76 14.26 26.1 13.96 26.47C12.44 24.93 11.5 22.82 11.5 20.5C11.5 15.81 15.31 12 20 12C24.69 12 28.5 15.81 28.5 20.5C28.5 22.82 27.56 24.93 26.04 26.47C25.75 26.1 25.38 25.76 24.94 25.47Z" fill="url(#paint0_linear_3730_8668)"/>
<path d="M20 15.4299C17.93 15.4299 16.25 17.1099 16.25 19.1799C16.25 21.2099 17.84 22.8599 19.95 22.9199C19.98 22.9199 20.02 22.9199 20.04 22.9199C20.06 22.9199 20.09 22.9199 20.11 22.9199C20.12 22.9199 20.13 22.9199 20.13 22.9199C22.15 22.8499 23.74 21.2099 23.75 19.1799C23.75 17.1099 22.07 15.4299 20 15.4299Z" fill="url(#paint1_linear_3730_8668)"/>
</g>
<defs>
<linearGradient id="paint0_linear_3730_8668" x1="20.0221" y1="13.3512" x2="20.0027" y2="30.5" gradientUnits="userSpaceOnUse">
<stop stop-color="#2DB9B0"/>
<stop offset="0.192695" stop-color="#24B3BC"/>
<stop offset="0.380161" stop-color="#1CAEC8"/>
<stop offset="0.690449" stop-color="#0EA4DB"/>
<stop offset="0.852057" stop-color="#079FE6"/>
<stop offset="1" stop-color="#077AB9"/>
</linearGradient>
<linearGradient id="paint1_linear_3730_8668" x1="20.0083" y1="16.4977" x2="20.001" y2="22.9199" gradientUnits="userSpaceOnUse">
<stop stop-color="#2DB9B0"/>
<stop offset="0.192695" stop-color="#24B3BC"/>
<stop offset="0.380161" stop-color="#1CAEC8"/>
<stop offset="0.690449" stop-color="#0EA4DB"/>
<stop offset="0.852057" stop-color="#079FE6"/>
<stop offset="1" stop-color="#077AB9"/>
</linearGradient>
<clipPath id="clip0_3730_8668">
<rect width="40" height="40" fill="white" transform="translate(0 0.5)"/>
</clipPath>
</defs>
</svg>
