<svg id="icon-1" xmlns="http://www.w3.org/2000/svg" width="20.185" height="18" viewBox="0 0 20.185 18">
  <path id="Path_5753" data-name="Path 5753" d="M11.34,10.9H5.533L8.079,3.414h.014l.369,1.134H11.34V2.265L10.792.685a1.343,1.343,0,0,0-.2-.418.724.724,0,0,0-.39-.23c-.181-.051-3.719-.051-3.881,0a.689.689,0,0,0-.355.222A1.4,1.4,0,0,0,5.77.643S.038,17.2.01,17.395a.543.543,0,0,0,.1.452,19.39,19.39,0,0,0,3.04.111.634.634,0,0,0,.292-.237c.06-.088,1.287-3.874,1.287-3.874H11.34Z" fill="#6d6d6d"/>
  <path id="Path_5754" data-name="Path 5754" d="M15.814,15.208H11.93c.381,1.119.874,2.559.907,2.6a.555.555,0,0,0,.292.174,26.315,26.315,0,0,0,3.325-.111.478.478,0,0,0,.111-.438C16.56,17.393,16.265,16.526,15.814,15.208Z" fill="#6d6d6d"/>
  <path id="Path_5755" data-name="Path 5755" d="M20.185,6.136H16.1V2.054H13.155V6.136H9.072V9.084h4.082v4.082H16.1V9.084h4.082Z" fill="#6d6d6d"/>
</svg>
