<svg width="93" height="31" viewBox="0 0 93 31" fill="none" xmlns="http://www.w3.org/2000/svg">
<path d="M26.2537 27.448C28.4724 27.448 30.2644 27.0107 31.6297 26.136L31.8537 26.392C30.019 28.9307 27.7364 30.3387 25.0057 30.616C24.4297 30.68 23.9284 30.712 23.5017 30.712C23.0964 30.712 22.6164 30.6907 22.0617 30.648C21.5284 30.6267 20.771 30.488 19.7897 30.232C18.8084 29.976 17.9444 29.7093 17.1977 29.432C16.451 29.176 15.587 28.824 14.6057 28.376C13.6244 27.9493 12.8137 27.5653 12.1737 27.224C11.5337 26.904 10.7657 26.5093 9.86971 26.04C8.99504 25.592 8.22704 25.208 7.56571 24.888C6.90437 24.568 6.26437 24.2907 5.64571 24.056C3.89637 23.352 2.10437 23 0.269705 23V22.68H0.685705C1.24037 22.68 1.70971 22.488 2.09371 22.104C2.49904 21.72 2.71237 21.24 2.73371 20.664V2.936C2.71237 2.36 2.49904 1.88 2.09371 1.496C1.70971 1.112 1.24037 0.919998 0.685705 0.919998H0.269705V0.599998H9.99771L9.96571 0.919998H9.64571C8.83504 0.919998 8.22704 1.25067 7.82171 1.912C7.62971 2.21067 7.53371 2.552 7.53371 2.936V21.496C7.53371 22.2 7.67237 22.6907 7.94971 22.968C8.22704 23.224 8.53637 23.4053 8.87771 23.512C16.899 26.136 22.691 27.448 26.2537 27.448ZM25.4945 0.151999C29.4411 0.151999 32.5771 1.19733 34.9025 3.288C37.2278 5.37867 38.3905 8.216 38.3905 11.8C38.3905 15.384 37.2278 18.2213 34.9025 20.312C32.5771 22.4027 29.4411 23.448 25.4945 23.448C21.5478 23.448 18.4118 22.4027 16.0865 20.312C13.7611 18.2213 12.5985 15.384 12.5985 11.8C12.5985 9.432 13.1211 7.37333 14.1665 5.624C15.2331 3.85333 16.7371 2.49867 18.6785 1.56C20.6198 0.621332 22.8918 0.151999 25.4945 0.151999ZM19.8945 19.352C21.2811 21.1867 23.1478 22.104 25.4945 22.104C27.8411 22.104 29.6971 21.1867 31.0625 19.352C32.4491 17.496 33.1425 14.9787 33.1425 11.8C33.1425 9.70933 32.8331 7.88533 32.2145 6.328C31.5958 4.77067 30.7105 3.576 29.5585 2.744C28.4065 1.912 27.0518 1.496 25.4945 1.496C23.1478 1.496 21.2811 2.424 19.8945 4.28C18.5291 6.11467 17.8465 8.62133 17.8465 11.8C17.8465 14.9787 18.5291 17.496 19.8945 19.352ZM65.58 12.6H65.1C64.588 12.6 64.1933 12.728 63.916 12.984C63.6386 13.2187 63.5 13.5707 63.5 14.04V19.32C62.668 20.408 61.292 21.368 59.372 22.2C57.452 23.032 55.2973 23.448 52.908 23.448C49.26 23.448 46.3266 22.4027 44.108 20.312C41.9106 18.2 40.812 15.3627 40.812 11.8C40.812 8.216 41.9106 5.37867 44.108 3.288C46.3266 1.19733 49.324 0.151999 53.1 0.151999C54.8066 0.151999 56.46 0.322666 58.06 0.664C59.66 0.983999 60.9506 1.38933 61.932 1.88L61.996 7.384H61.708C61.1533 5.31467 60.204 3.82133 58.86 2.904C57.516 1.96533 55.916 1.496 54.06 1.496C51.4786 1.496 49.4946 2.424 48.108 4.28C46.7213 6.11467 46.028 8.64267 46.028 11.864C46.028 15.064 46.6573 17.5707 47.916 19.384C49.196 21.1973 50.9986 22.104 53.324 22.104C55.0093 22.104 56.4173 21.624 57.548 20.664C58.1026 20.1733 58.508 19.5973 58.764 18.936V14.04C58.764 13.5707 58.6146 13.2187 58.316 12.984C58.0386 12.728 57.6333 12.6 57.1 12.6H56.588V12.28H65.58V12.6ZM79.722 0.151999C83.6686 0.151999 86.8046 1.19733 89.13 3.288C91.4553 5.37867 92.618 8.216 92.618 11.8C92.618 15.384 91.4553 18.2213 89.13 20.312C86.8046 22.4027 83.6686 23.448 79.722 23.448C75.7753 23.448 72.6393 22.4027 70.314 20.312C67.9886 18.2213 66.826 15.384 66.826 11.8C66.826 9.432 67.3486 7.37333 68.394 5.624C69.4606 3.85333 70.9646 2.49867 72.906 1.56C74.8473 0.621332 77.1193 0.151999 79.722 0.151999ZM74.122 19.352C75.5086 21.1867 77.3753 22.104 79.722 22.104C82.0686 22.104 83.9246 21.1867 85.29 19.352C86.6766 17.496 87.37 14.9787 87.37 11.8C87.37 9.70933 87.0606 7.88533 86.442 6.328C85.8233 4.77067 84.938 3.576 83.786 2.744C82.634 1.912 81.2793 1.496 79.722 1.496C77.3753 1.496 75.5086 2.424 74.122 4.28C72.7566 6.11467 72.074 8.62133 72.074 11.8C72.074 14.9787 72.7566 17.496 74.122 19.352Z" fill="#2DB9B0"/>
</svg>
