<svg width="59" height="14" viewBox="0 0 59 14" fill="none" xmlns="http://www.w3.org/2000/svg">
<path d="M22.171 5.53818C22.1176 5.57109 22.0541 5.58253 21.9929 5.57025C21.9317 5.55797 21.8772 5.52287 21.8401 5.47183C21.6578 5.20574 21.4133 4.99 21.1285 4.84409C20.8437 4.69819 20.5277 4.62671 20.2089 4.63612C18.9661 4.63612 18.2033 5.63612 18.2033 7.0643C18.2033 8.49248 18.9801 9.51151 20.2229 9.51151C20.5459 9.51935 20.8655 9.44322 21.1515 9.29033C21.4375 9.13744 21.6804 8.91286 21.8572 8.63783C21.8925 8.58612 21.9457 8.54979 22.0061 8.53605C22.0665 8.5223 22.1298 8.53213 22.1834 8.56359L22.7738 8.91116C22.806 8.92778 22.8344 8.95127 22.8569 8.98003C22.8794 9.00879 22.8955 9.04215 22.9042 9.07783C22.9129 9.11351 22.914 9.15067 22.9073 9.18679C22.9006 9.22292 22.8863 9.25714 22.8654 9.28715C22.5768 9.72706 22.1831 10.0852 21.7212 10.3281C21.2593 10.571 20.7443 10.6906 20.2245 10.6758C18.2375 10.6758 16.8906 9.2098 16.8906 7.07228C16.8906 4.93476 18.2375 3.48755 20.1949 3.48755C20.7061 3.47313 21.2129 3.58625 21.6711 3.81704C22.1293 4.04783 22.525 4.38925 22.8235 4.81146C22.844 4.83989 22.8586 4.8723 22.8663 4.9067C22.874 4.94109 22.8747 4.97673 22.8682 5.01139C22.8618 5.04606 22.8485 5.07901 22.829 5.10821C22.8096 5.13741 22.7844 5.16223 22.7551 5.18113L22.171 5.53818Z" fill="black"/>
<path fill-rule="evenodd" clip-rule="evenodd" d="M26.5136 9.99848V10.2891C26.5135 10.3233 26.5203 10.3571 26.5335 10.3885C26.5467 10.4199 26.566 10.4483 26.5902 10.4719C26.6144 10.4955 26.6431 10.5139 26.6746 10.5259C26.706 10.538 26.7395 10.5434 26.773 10.5419H27.4224C27.455 10.5419 27.4873 10.5354 27.5175 10.5227C27.5476 10.51 27.575 10.4914 27.5981 10.4679C27.6212 10.4444 27.6395 10.4166 27.652 10.3859C27.6645 10.3552 27.6709 10.3223 27.6709 10.2891V6.98728C27.6709 5.79135 26.8352 5.29688 25.6514 5.29688C24.986 5.29844 24.331 5.46549 23.7437 5.78346C23.6876 5.81523 23.6456 5.86773 23.6266 5.93007C23.6075 5.99242 23.6127 6.05984 23.6411 6.11837L23.854 6.57021C23.8686 6.60054 23.8891 6.62754 23.9142 6.64958C23.9394 6.67161 23.9687 6.68823 24.0004 6.69843C24.032 6.70862 24.0654 6.71218 24.0984 6.70888C24.1315 6.70558 24.1635 6.6955 24.1926 6.67924C24.612 6.45761 25.0763 6.33808 25.5488 6.33008C25.9605 6.33008 26.4468 6.44549 26.4468 6.87357C26.4468 7.32139 25.9148 7.39777 25.2586 7.49197C25.2057 7.49953 25.1528 7.50719 25.0999 7.51496C24.4226 7.61134 23.3242 7.82621 23.3242 9.079C23.3242 10.0854 24.0404 10.6589 25.0719 10.6589C25.7695 10.6589 26.2029 10.4061 26.5136 9.99848ZM25.4955 8.29586C25.8878 8.22582 26.2436 8.16236 26.4468 8.00632V8.59406C26.4468 9.36182 25.9031 9.692 25.3205 9.692C24.8513 9.692 24.5266 9.4787 24.5266 9.02214C24.5266 8.52606 24.8995 8.40441 25.3485 8.32229C25.3979 8.31324 25.4469 8.30451 25.4955 8.29586Z" fill="black"/>
<path d="M28.7381 9.23289C28.78 9.18327 28.8392 9.1521 28.9032 9.14592C28.9672 9.13974 29.0311 9.15903 29.0814 9.19974C29.4968 9.5187 30.0059 9.6857 30.5262 9.67367C31.0621 9.67367 31.4583 9.49833 31.4583 9.07176C31.4583 8.68311 31.0948 8.60571 30.2155 8.44931C29.2834 8.2913 28.3917 7.97533 28.3917 6.89476C28.3917 5.7683 29.3471 5.29285 30.4361 5.29285C31.119 5.28256 31.7856 5.50499 32.3298 5.9247C32.3563 5.94585 32.3784 5.97227 32.3946 6.00235C32.4108 6.03244 32.4208 6.06556 32.424 6.09971C32.4272 6.13385 32.4235 6.1683 32.4132 6.20095C32.4029 6.23361 32.3861 6.26378 32.364 6.28964L32.0533 6.66091C32.0121 6.71071 31.9537 6.74256 31.8901 6.74991C31.8265 6.75726 31.7626 6.73956 31.7115 6.70044C31.3287 6.41566 30.8653 6.26487 30.391 6.27071C29.9327 6.27071 29.532 6.40661 29.532 6.77467C29.532 7.18386 30.0943 7.26126 30.6582 7.35921C31.8622 7.57251 32.6265 7.92164 32.6265 8.93906C32.6265 10.007 31.7861 10.6674 30.4516 10.6674C29.7223 10.6901 29.008 10.4532 28.4321 9.99753C28.4062 9.97602 28.3849 9.94949 28.3692 9.91949C28.3536 9.8895 28.3439 9.85663 28.3409 9.82281C28.3378 9.789 28.3415 9.7549 28.3515 9.72252C28.3616 9.69014 28.3778 9.66011 28.3994 9.63419L28.7381 9.23289ZM33.3644 10.2882V3.85825C33.3644 3.82506 33.3709 3.79219 33.3833 3.76152C33.3958 3.73085 33.4141 3.70298 33.4372 3.67951C33.4603 3.65604 33.4877 3.63742 33.5178 3.62471C33.548 3.61201 33.5803 3.60547 33.613 3.60547H34.3292C34.4664 3.60547 34.5777 3.71865 34.5777 3.85825V6.05424C34.756 5.81226 34.9887 5.61717 35.2562 5.48525C35.5238 5.35332 35.8185 5.28839 36.1157 5.29588C37.1752 5.29588 37.7966 6.06368 37.7966 7.16011V10.2882C37.7966 10.3214 37.7901 10.3543 37.7776 10.3849C37.7652 10.4156 37.7469 10.4435 37.7238 10.4669C37.7007 10.4904 37.6733 10.509 37.6431 10.5217C37.613 10.5344 37.5807 10.541 37.548 10.541H36.8318C36.7659 10.541 36.7027 10.5143 36.6561 10.4669C36.6095 10.4195 36.5833 10.3552 36.5833 10.2882V7.44449C36.5833 6.89944 36.4108 6.40496 35.7242 6.40496C35.0733 6.40496 34.5777 6.87106 34.5777 7.64826V10.2898C34.5777 10.3568 34.5515 10.4211 34.5049 10.4685C34.4583 10.5159 34.3951 10.5425 34.3292 10.5425H33.613C33.5801 10.5427 33.5476 10.5363 33.5173 10.5236C33.4869 10.5108 33.4594 10.4921 33.4362 10.4684C33.4131 10.4447 33.3948 10.4166 33.3825 10.3856C33.3702 10.3547 33.364 10.3216 33.3644 10.2882Z" fill="black"/>
<path fill-rule="evenodd" clip-rule="evenodd" d="M45.1623 8.82164L45.678 10.3699C45.6935 10.4203 45.7242 10.4644 45.7657 10.4962C45.8072 10.5279 45.8574 10.5456 45.9093 10.5469H46.7966C46.8367 10.547 46.8762 10.5373 46.9117 10.5186C46.9473 10.4999 46.9779 10.4727 47.0008 10.4393C47.0239 10.406 47.0388 10.3675 47.044 10.327C47.0493 10.2866 47.0448 10.2455 47.0311 10.2072L44.693 3.77724C44.675 3.72869 44.643 3.68683 44.6012 3.65721C44.5593 3.62758 44.5096 3.61159 44.4586 3.61135H43.3106C43.2606 3.61075 43.2116 3.62551 43.17 3.6537C43.1284 3.6819 43.0961 3.72221 43.0775 3.76935L40.73 10.2009C40.7162 10.239 40.7118 10.28 40.7169 10.3203C40.7221 10.3606 40.7367 10.399 40.7596 10.4324C40.7824 10.4657 40.8128 10.4929 40.8483 10.5117C40.8837 10.5306 40.923 10.5405 40.963 10.5405H41.8033C41.8551 10.5407 41.9056 10.5243 41.9477 10.4937C41.9899 10.4631 42.0215 10.4198 42.0381 10.3699L42.5552 8.82164H45.1623ZM42.8693 7.74264L43.8727 4.73148L44.8376 7.74264H42.8693ZM48.8315 6.06328V5.66514C48.8333 5.63088 48.8281 5.59663 48.8163 5.56448C48.8046 5.53233 48.7865 5.50297 48.7631 5.47821C48.7399 5.4534 48.712 5.43365 48.681 5.42017C48.6501 5.40669 48.6167 5.39975 48.583 5.39979H47.8666C47.7295 5.39979 47.6182 5.51297 47.6182 5.65253V11.9719C47.6182 12.1115 47.7295 12.2247 47.8666 12.2247H48.583C48.7202 12.2247 48.8315 12.1115 48.8315 11.9719V9.87543C49.0068 10.1259 49.2406 10.328 49.5118 10.4637C49.783 10.5994 50.0832 10.6643 50.3852 10.6527C51.7598 10.6527 52.6484 9.4821 52.6484 7.96699C52.6484 6.45197 51.7598 5.29547 50.3852 5.29547C50.0841 5.28308 49.7845 5.34671 49.5134 5.48068C49.2423 5.61466 49.008 5.81481 48.8315 6.06328ZM51.3729 7.96699C51.3729 8.85016 50.9706 9.58005 50.1302 9.58005C49.2745 9.58005 48.8315 8.85168 48.8315 7.96699C48.8315 7.08226 49.2977 6.37292 50.1302 6.37292C50.9627 6.37292 51.3729 7.08387 51.3729 7.96699ZM54.6105 6.06323V5.66509C54.6124 5.63082 54.6074 5.5965 54.5958 5.56426C54.5842 5.53202 54.5662 5.50254 54.543 5.47763C54.5197 5.45276 54.4916 5.43302 54.4605 5.41962C54.4293 5.40621 54.3959 5.39943 54.3621 5.3997H53.6456C53.5797 5.39972 53.5166 5.42636 53.47 5.47375C53.4234 5.52115 53.3972 5.58542 53.3972 5.65244V11.9719C53.3972 12.1114 53.5085 12.2246 53.6456 12.2246H54.3621C54.4992 12.2246 54.6105 12.1114 54.6105 11.9718V9.87534C54.786 10.1255 55.0198 10.3275 55.291 10.4632C55.5622 10.5988 55.8622 10.6639 56.1642 10.6526C57.5405 10.6526 58.4291 9.48197 58.4291 7.9669C58.4291 6.45188 57.5405 5.29543 56.1642 5.29543C55.8631 5.2833 55.5637 5.34705 55.2926 5.481C55.0215 5.61495 54.7872 5.81496 54.6105 6.06323ZM57.1536 7.9669C57.1536 8.85007 56.7514 9.57996 55.911 9.57996C55.0596 9.57996 54.6105 8.85163 54.6105 7.9669C54.6105 7.08222 55.078 6.37288 55.911 6.37288C56.7435 6.37288 57.1536 7.08378 57.1536 7.9669Z" fill="black"/>
<path fill-rule="evenodd" clip-rule="evenodd" d="M9.64742 0.25C11.0021 0.25 11.6686 0.25 12.4003 0.483804C12.7929 0.628409 13.1495 0.85903 13.4448 1.15934C13.7401 1.45965 13.9669 1.8223 14.1091 2.22162C14.339 2.95944 14.339 3.64352 14.339 5.01479V9.14131C14.339 10.5111 14.339 11.1951 14.1091 11.9345C13.9669 12.3338 13.7401 12.6965 13.4448 12.9968C13.1495 13.2971 12.7929 13.5277 12.4003 13.6723C11.6747 13.9061 11.0021 13.9061 9.65364 13.9061H5.58345C4.23657 13.9061 3.56394 13.9061 2.83684 13.6723C2.44417 13.5277 2.08756 13.2971 1.79226 12.9968C1.49695 12.6965 1.27018 12.3338 1.12798 11.9345C0.904297 11.1967 0.904297 10.5189 0.904297 9.14131V5.00851C0.904297 3.63875 0.904297 2.95476 1.1342 2.2153C1.27639 1.81597 1.50317 1.45331 1.79847 1.153C2.09378 0.852695 2.45039 0.622076 2.84306 0.477476C3.56236 0.25 4.23657 0.25 5.5835 0.25H9.64742Z" fill="#00D54B"/>
<path d="M7.95714 4.72607C8.6171 4.72711 9.25543 4.96549 9.7592 5.39906C9.81122 5.447 9.8793 5.47289 9.94948 5.47142C10.0197 5.46995 10.0866 5.44124 10.1367 5.39117L10.6556 4.86194C10.6816 4.83569 10.702 4.80424 10.7155 4.76958C10.729 4.73491 10.7353 4.69779 10.7339 4.66053C10.7326 4.62328 10.7237 4.58671 10.7078 4.55311C10.692 4.51952 10.6694 4.48964 10.6416 4.46536C10.2341 4.11283 9.76284 3.84453 9.2543 3.67549L9.40967 2.89659C9.41773 2.85657 9.41692 2.81522 9.40729 2.77555C9.39767 2.73588 9.37948 2.69889 9.35403 2.66727C9.32859 2.63565 9.29654 2.61019 9.26021 2.59274C9.22388 2.57529 9.18419 2.5663 9.14401 2.56641H8.14512C8.08322 2.56635 8.02316 2.58777 7.97485 2.62713C7.92655 2.66649 7.89289 2.72143 7.87946 2.78288L7.73964 3.47957C6.40984 3.54596 5.28199 4.21578 5.28199 5.58866C5.28199 6.7751 6.21411 7.28539 7.19903 7.64245C8.1311 7.99474 8.62513 8.12592 8.62513 8.62196C8.62513 9.11799 8.13267 9.4308 7.4072 9.4308C6.70316 9.44225 6.02294 9.1716 5.51348 8.6773C5.46292 8.62674 5.39486 8.5984 5.32395 8.5984C5.25304 8.5984 5.18498 8.62674 5.13442 8.6773L4.57825 9.23015C4.55227 9.25564 4.5316 9.28619 4.51748 9.31999C4.50337 9.35378 4.49609 9.39012 4.49609 9.42683C4.49609 9.46355 4.50337 9.49989 4.51748 9.53368C4.5316 9.56748 4.55227 9.59803 4.57825 9.62352C5.0314 10.0552 5.58448 10.3633 6.18611 10.5193L6.03078 11.2413C6.02256 11.2816 6.02316 11.3233 6.03254 11.3634C6.04191 11.4035 6.05982 11.4409 6.08502 11.4732C6.11021 11.5055 6.14206 11.5317 6.17833 11.55C6.21459 11.5684 6.25437 11.5784 6.29486 11.5794H7.29687C7.35925 11.5798 7.41984 11.5583 7.4685 11.5186C7.51715 11.4789 7.55091 11.4234 7.56411 11.3614L7.70857 10.6773C9.30245 10.5778 10.2765 9.70573 10.2765 8.42919C10.2765 7.2538 9.30556 6.75776 8.12645 6.3533C7.45224 6.09579 6.86965 5.92673 6.86965 5.41804C6.86965 4.90935 7.41338 4.72607 7.95714 4.72607Z" fill="white"/>
</svg>
