<svg width="20" height="20" viewBox="0 0 20 20" fill="none" xmlns="http://www.w3.org/2000/svg">
<path d="M8.65854 17.3171C10.7805 17.3171 12.7317 16.5366 14.2439 15.2683L18.7561 19.7805C18.9024 19.9268 19.0976 20 19.2683 20C19.439 20 19.6341 19.9268 19.7805 19.7805C20.0732 19.4878 20.0732 19.0244 19.7805 18.7561L15.2683 14.2439C16.5366 12.7317 17.3171 10.7805 17.3171 8.65854C17.3171 3.87805 13.439 0 8.65854 0C3.87805 0 0 3.87805 0 8.65854C0 13.439 3.87805 17.3171 8.65854 17.3171ZM8.65854 1.46341C12.6098 1.46341 15.8537 4.68293 15.8537 8.65854C15.8537 12.6098 12.6098 15.8537 8.65854 15.8537C4.68293 15.8537 1.46341 12.6098 1.46341 8.65854C1.46341 4.68293 4.68293 1.46341 8.65854 1.46341Z" fill="#35C0B4"/>
</svg>
