<svg width="28" height="24" viewBox="0 0 28 24" fill="none" xmlns="http://www.w3.org/2000/svg">
<path d="M26.5144 1.40844L26.5141 1.41736V1.42629V7.02171C26.5141 7.51984 26.1009 7.948 25.5878 7.948H17.4204V7.37829C17.4204 6.41895 17.0358 5.52487 16.3688 4.85788C15.7018 4.19088 14.8077 3.80629 13.8484 3.80629C11.8717 3.80629 10.2764 5.40157 10.2764 7.37829V7.948H2.41066C1.91254 7.948 1.48438 7.53478 1.48438 7.02171V1.42629C1.48438 0.906999 1.89137 0.5 2.41066 0.5H25.6152C26.1319 0.5 26.5316 0.927724 26.5144 1.40844Z" stroke="#F2FBF9"/>
<path d="M20.2052 13.9061V15.7113L21.1339 14.1634C21.2899 13.9034 21.593 13.7204 21.9394 13.7204C22.4584 13.7204 22.8983 14.1564 22.9206 14.6566V19.1998C22.9206 20.3585 22.478 21.4376 21.6682 22.2474C20.8583 23.0573 19.7793 23.4998 18.6206 23.4998H16.3166C14.8174 23.4998 13.4237 22.8513 12.4781 21.7065L12.4777 21.706L8.77481 17.2352L8.77384 17.234C8.59254 17.0165 8.51911 16.7464 8.5562 16.4682C8.59419 16.1833 8.74294 15.9427 8.9535 15.8131L8.96811 15.8041L8.98207 15.7941C9.35214 15.5298 9.87597 15.5783 10.203 15.9054L11.6598 17.3622C11.7581 17.4836 11.8929 17.5653 12.0477 17.5935C12.2019 17.6215 12.335 17.5889 12.4153 17.5622C12.7124 17.4631 12.8943 17.1819 12.8943 16.8958V7.35069C12.8943 6.8314 13.3287 6.39697 13.848 6.39697C14.1165 6.39697 14.3487 6.50131 14.5368 6.68938C14.7212 6.87378 14.8292 7.13212 14.8292 7.37811V12.3153V14.1204L15.7579 12.5725C15.9139 12.3125 16.217 12.1295 16.5634 12.1295C17.0827 12.1295 17.5172 12.564 17.5172 13.0833V13.1107V14.9158L18.4459 13.3679C18.6019 13.1079 18.905 12.925 19.2514 12.925C19.7707 12.925 20.2052 13.3594 20.2052 13.8787V13.9061ZM8.38973 17.5541L12.0926 22.025L11.9006 16.8958L11.8944 16.8896C11.8943 16.8917 11.8943 16.8937 11.8943 16.8958V16.8895L10.5566 15.5518C10.0629 15.0581 9.26745 14.9758 8.69145 15.3873C8.33488 15.6067 8.11545 15.9907 8.06059 16.4021C8.00573 16.8135 8.11545 17.225 8.38973 17.5541Z" stroke="#F2FBF9"/>
</svg>
